<?xml version="1.0" encoding="UTF-8" standalone="no"?>
<svg
   xmlns:dc="http://purl.org/dc/elements/1.1/"
   xmlns:cc="http://creativecommons.org/ns#"
   xmlns:rdf="http://www.w3.org/1999/02/22-rdf-syntax-ns#"
   xmlns:svg="http://www.w3.org/2000/svg"
   xmlns="http://www.w3.org/2000/svg"
   xmlns:sodipodi="http://sodipodi.sourceforge.net/DTD/sodipodi-0.dtd"
   xmlns:inkscape="http://www.inkscape.org/namespaces/inkscape"
   viewBox="0 0 700 700"
   width="700"
   height="700"
   version="1.1"
   id="svg76"
   sodipodi:docname="Inter-miami-cf-logo.svg"
   inkscape:version="0.92.4 (5da689c313, 2019-01-14)"
   inkscape:export-filename="G:\Users\suitedoalex\sites\Inter-miami-cf-logo-0.png"
   inkscape:export-xdpi="561.73999"
   inkscape:export-ydpi="561.73999">
  <metadata
     id="metadata82">
    <rdf:RDF>
      <cc:Work
         rdf:about="">
        <dc:format>image/svg+xml</dc:format>
        <dc:type
           rdf:resource="http://purl.org/dc/dcmitype/StillImage" />
        <dc:title></dc:title>
      </cc:Work>
    </rdf:RDF>
  </metadata>
  <defs
     id="defs80" />
  <sodipodi:namedview
     pagecolor="#ffffff"
     bordercolor="#666666"
     borderopacity="1"
     objecttolerance="10"
     gridtolerance="10"
     guidetolerance="10"
     inkscape:pageopacity="0"
     inkscape:pageshadow="2"
     inkscape:window-width="1600"
     inkscape:window-height="837"
     id="namedview78"
     showgrid="false"
     inkscape:zoom="0.6675088"
     inkscape:cx="211.47859"
     inkscape:cy="395.22273"
     inkscape:window-x="-8"
     inkscape:window-y="-8"
     inkscape:window-maximized="1"
     inkscape:current-layer="svg76" />
  <style
     id="style2">
		tspan { white-space:pre }
		.shp0 { fill: #f6b4cd } 
		.shp1 { fill: #000100 } 
		.shp2 { fill: #ffffff } 
	</style>
  <path
     inkscape:connector-curvature="0"
     class="shp0"
     d="m 343.07639,96.458503 c -1.50248,0.0397 -5.3399,0.24447 -8.52763,0.4266 -3.18768,0.18335 -7.89821,0.54822 -10.45648,0.81193 -2.5786,0.26281 -7.2688,0.83273 -10.45652,1.29966 -3.18768,0.44646 -9.05552,1.461917 -13.03504,2.253697 -3.99988,0.79178 -10.29406,2.21305 -14.00968,3.1674 -3.71559,0.95434 -9.58348,2.63934 -13.03508,3.73579 -3.45166,1.07628 -8.52763,2.80192 -11.26865,3.83755 -2.74104,1.01516 -7.08604,2.72063 -9.64435,3.79691 -2.5786,1.0558 -7.06576,3.04547 -9.98948,4.40593 -2.9238,1.36017 -7.12667,3.41096 -9.33983,4.56821 -2.21311,1.17773 -6.19264,3.35014 -8.85247,4.87288 -2.63949,1.50257 -6.70027,3.939 -9.01494,5.38077 -2.2943,1.44144 -5.84747,3.75595 -7.87787,5.1366 -2.03038,1.36046 -6.45665,4.5685 -9.80675,7.08622 -3.37047,2.51772 -7.71548,5.90851 -9.66464,7.53271 -1.94919,1.62418 -4.6293,3.91852 -5.94904,5.09625 -1.31976,1.17772 -4.44655,4.04045 -6.92362,6.37545 -2.47709,2.3145 -6.39574,6.21287 -8.71038,8.66978 -2.31465,2.45661 -4.85264,5.19771 -5.64448,6.09124 -0.77154,0.87276 -1.50247,1.66484 -1.58369,1.76629 -0.10146,0.0825 -1.70551,1.9695 -3.57349,4.18256 -1.86792,2.21305 -4.8323,5.88803 -6.61906,8.20284 -1.76644,2.29434 -4.2232,5.54303 -5.42113,7.22803 -1.21825,1.68531 -3.97956,5.74625 -6.13176,9.0151 -2.15222,3.26885 -5.38055,8.48704 -7.18757,11.57315 -1.80705,3.10659 -4.85261,8.75108 -6.78148,12.54767 -1.9289,3.79691 -4.46688,9.09639 -5.64448,11.73573 -1.17764,2.65982 -3.0456,7.14705 -4.18259,9.96914 -1.11673,2.84256 -2.92379,7.75608 -3.99988,10.94395 -1.09641,3.18757 -2.7004,8.24318 -3.57349,11.24833 -0.85277,3.02528 -2.07098,7.51221 -2.7004,9.98929 -0.60913,2.47708 -1.70554,7.39061 -2.41615,10.92348 -0.71064,3.55335 -1.725857,9.48203 -2.253759,13.19766 -0.527902,3.71561 -1.197929,8.99462 -1.461859,11.73572 -0.264033,2.7408 -0.629446,7.45141 -0.812161,10.45624 -0.182741,3.00513 -0.324866,9.44139 -0.324866,14.31426 0,4.87318 0.142099,11.30944 0.324866,14.31427 0.182741,3.00513 0.548197,7.71543 0.812161,10.45653 0.264024,2.74111 0.933957,8.02013 1.461859,11.73577 0.527902,3.71556 1.543119,9.6443 2.253759,13.19735 0.71061,3.53282 1.80702,8.44637 2.41615,10.92341 0.62942,2.47713 1.84763,6.96431 2.7004,9.98963 0.87309,3.00485 2.47708,8.06079 3.57349,11.24837 1.07609,3.18783 2.88315,8.10139 3.99988,10.94389 1.13699,2.82212 3.00495,7.30938 4.18259,9.96915 1.1776,2.63939 3.71558,7.93879 5.64448,11.73539 1.92887,3.79695 4.97443,9.44143 6.78148,12.54805 1.80702,3.08606 5.03535,8.30426 7.18757,11.57314 2.1522,3.26887 4.91351,7.32977 6.13176,9.01479 1.19793,1.68529 3.65469,4.93395 5.42113,7.22834 1.78676,2.31453 4.77142,5.98947 6.61906,8.20283 1.86798,2.21309 3.97955,4.66965 4.69022,5.46175 0.71065,0.79176 2.3146,2.51739 3.53286,3.85769 1.23853,1.34003 3.12681,3.35018 4.2029,4.46678 1.0558,1.13709 4.10137,4.10124 6.76119,6.59884 2.65982,2.49726 5.92873,5.52249 7.24849,6.70028 1.31974,1.17743 3.99986,3.47174 5.94904,5.0962 1.94917,1.6242 6.29418,5.01498 9.66465,7.53272 3.3501,2.53787 7.77637,5.72578 9.80675,7.10643 2.03039,1.36017 5.58357,3.67495 7.87787,5.11642 2.31467,1.44172 6.37545,3.87816 9.01494,5.38045 2.65983,1.52303 6.78148,3.77673 9.17734,5.03547 2.39584,1.23852 7.16727,3.55329 10.61894,5.13689 3.45165,1.58385 8.66974,3.81707 11.59351,4.99477 2.92374,1.15731 6.98452,2.70047 9.0149,3.43148 2.0304,0.73093 6.23331,2.13171 9.33979,3.10628 3.0862,0.97474 8.66978,2.55834 12.38537,3.51269 3.71562,0.95436 9.66464,2.31453 13.1975,3.02532 3.53287,0.71046 8.75097,1.6446 11.5935,2.07088 2.82223,0.42629 7.16727,1.01518 9.64434,1.27921 2.47706,0.28417 6.17238,0.64972 8.20277,0.83246 2.0507,0.18333 7.47183,0.46689 12.08078,0.64963 5.80694,0.2445 11.02504,0.2445 17.05526,0.031 4.79171,-0.18342 11.08593,-0.56842 14.00969,-0.83245 2.92374,-0.26283 7.12666,-0.71055 9.33977,-0.97449 2.19284,-0.28425 6.90331,-0.99504 10.45649,-1.58385 3.53288,-0.58889 9.40068,-1.72572 13.03511,-2.53795 3.63437,-0.81223 9.42097,-2.2537 12.87263,-3.20805 3.45166,-0.97449 8.954,-2.65977 12.22292,-3.73578 3.28924,-1.0964 8.64945,-3.06593 11.91838,-4.34514 3.26892,-1.29934 7.8982,-3.22819 10.29406,-4.28397 2.39586,-1.05579 7.16724,-3.32996 10.6189,-5.0556 3.45169,-1.72597 7.59367,-3.85803 9.17737,-4.7513 1.60402,-0.89318 4.85264,-2.78176 7.24849,-4.18254 2.37554,-1.42125 7.02515,-4.34514 10.29407,-6.51754 3.26892,-2.15226 8.06063,-5.48222 10.6189,-7.3906 2.57859,-1.90871 6.47693,-4.93402 8.69005,-6.72074 2.21314,-1.78681 5.76631,-4.75096 7.89821,-6.61897 2.1116,-1.86776 5.29931,-4.75096 7.04547,-6.43633 1.76641,-1.68528 4.02016,-3.85768 4.99474,-4.83216 0.9949,-0.97484 3.10649,-3.14724 4.69019,-4.83261 1.60399,-1.66481 4.14198,-4.4261 5.66477,-6.0909 1.50251,-1.68529 4.1217,-4.73074 5.78661,-6.76145 1.68522,-2.03027 4.08108,-4.99476 5.33991,-6.59849 1.23854,-1.58385 3.43136,-4.48718 4.83235,-6.43659 1.42125,-1.94897 4.02017,-5.70522 5.78659,-8.36507 1.78672,-2.6393 4.75109,-7.34999 6.61905,-10.43605 1.84766,-3.10663 4.58867,-7.87806 6.05056,-10.61913 1.48216,-2.74081 3.67499,-7.08595 4.91353,-9.6645 1.21825,-2.55835 3.12679,-6.76136 4.24352,-9.31944 1.09638,-2.55834 2.82224,-6.76136 3.79682,-9.31944 0.99489,-2.57881 2.47708,-6.61931 3.28923,-9.01514 0.81216,-2.39574 2.1116,-6.43624 2.90345,-9.01471 0.77153,-2.55842 2.07101,-7.18773 2.86284,-10.29436 0.79187,-3.08605 2.01008,-8.44637 2.72073,-11.89798 0.71064,-3.45153 1.72582,-9.15684 2.25373,-12.71023 0.54819,-3.53282 1.27914,-9.40042 1.64463,-13.01459 0.34516,-3.63433 0.79184,-9.42121 0.97457,-12.87281 0.18274,-3.45159 0.32484,-8.95398 0.32484,-12.22283 0,-3.26885 -0.1421,-8.77124 -0.32484,-12.22283 -0.18273,-3.45191 -0.62941,-9.23849 -0.9949,-12.87282 -0.34516,-3.61417 -1.01519,-9.05543 -1.44157,-12.06056 -0.44667,-3.00483 -1.31975,-8.08093 -1.94919,-11.24832 -0.60909,-3.18757 -1.76643,-8.40576 -2.53797,-11.59333 -0.77154,-3.18787 -1.92886,-7.59381 -2.57859,-9.80686 -0.64971,-2.21306 -1.82735,-6.05062 -2.61918,-8.52768 -0.81218,-2.47709 -2.41615,-7.02513 -3.55318,-10.13172 -1.15734,-3.08611 -3.14711,-8.08091 -4.44655,-11.08574 -1.27915,-3.00514 -3.35014,-7.57334 -4.56839,-10.13171 -1.21821,-2.57853 -3.43137,-6.92366 -4.91353,-9.66447 -1.46189,-2.74111 -4.2029,-7.51253 -6.05056,-10.61912 -1.86796,-3.08611 -4.83233,-7.79671 -6.61905,-10.43606 -1.76642,-2.65982 -4.36534,-6.41609 -5.78659,-8.36512 -1.40099,-1.94933 -3.59381,-4.8527 -4.83235,-6.43655 -1.25883,-1.60402 -3.65469,-4.5682 -5.33991,-6.59853 -1.66491,-2.03061 -4.2841,-5.07608 -5.78661,-6.76139 -1.52279,-1.66484 -4.06078,-4.42611 -5.66477,-6.11142 -1.5837,-1.66483 -3.75624,-3.89836 -4.83232,-4.93369 -1.0558,-1.03562 -3.30952,-3.20804 -4.99474,-4.83254 -1.68525,-1.60402 -4.79174,-4.44657 -6.90334,-6.31432 -2.1319,-1.86805 -5.68507,-4.83254 -7.89821,-6.6193 -2.21312,-1.78645 -6.11146,-4.81176 -8.69005,-6.72044 -2.55827,-1.90869 -7.34998,-5.23836 -10.6189,-7.39061 -3.26892,-2.1724 -7.91853,-5.09626 -10.29407,-6.51754 -2.39585,-1.4008 -5.64447,-3.28933 -7.24849,-4.18256 -1.5837,-0.89353 -5.58355,-2.94401 -8.85247,-4.58868 -3.26891,-1.64466 -7.97943,-3.87819 -10.45651,-4.99481 -2.47705,-1.11661 -7.26876,-3.10659 -10.61893,-4.42611 -3.37043,-1.34029 -8.79156,-3.32997 -12.0808,-4.42641 -3.26892,-1.07597 -8.77126,-2.76127 -12.22292,-3.73578 -3.45166,-0.95435 -9.17737,-2.37563 -12.71021,-3.16741 -3.55318,-0.79177 -8.97433,-1.86805 -12.0808,-2.39579 -3.08621,-0.528047 -7.87791,-1.259017 -10.61896,-1.624497 -2.74099,-0.345 -7.37029,-0.85258 -10.29403,-1.11661 -2.92376,-0.2628 -9.01492,-0.62951 -13.52237,-0.81225 -4.50749,-0.16195 -9.2992,-0.28419 -10.61893,-0.2628 -1.34006,0.0397 -3.65469,0.10085 -5.1572,0.16196 z"
     id="path4-2"
     style="fill:#efb2c8;fill-opacity:1;stroke-width:2.03038716"
     inkscape:export-filename="G:\Users\suitedoalex\sites\Inter-miami-cf-logo-4.png"
     inkscape:export-xdpi="75.650612"
     inkscape:export-ydpi="75.650612" />
  <path
     inkscape:connector-curvature="0"
     class="shp1"
     d="m 338.8938,105.89989 c -3.10649,0.14361 -8.16213,0.50758 -11.26864,0.79176 -3.0862,0.2842 -8.62916,0.93419 -12.30417,1.46193 -3.67498,0.52805 -9.62401,1.52274 -13.19751,2.2537 -3.59377,0.71079 -9.13671,1.94933 -12.30414,2.76127 -3.18769,0.81225 -8.54791,2.31482 -11.91839,3.35045 -3.37043,1.03533 -8.64943,2.80192 -11.75592,3.9387 -3.08618,1.13708 -8.30428,3.20805 -11.57319,4.58868 -3.28924,1.38063 -8.7104,3.87819 -12.08083,5.54303 -3.37044,1.66483 -7.71547,3.89835 -9.64433,4.95416 -1.94918,1.07596 -5.50235,3.10659 -7.8982,4.54803 -2.39586,1.42129 -7.16728,4.46676 -10.61891,6.76111 -3.45166,2.3148 -8.52763,5.88833 -11.26867,7.95929 -2.74101,2.07096 -6.94392,5.40093 -9.33978,7.39059 -2.37556,1.98968 -6.35509,5.46175 -8.85247,7.71544 -2.4771,2.2537 -6.59874,6.25351 -9.17737,8.8727 -2.55828,2.61917 -5.90841,6.15205 -7.43119,7.83737 -1.52282,1.68531 -4.38565,5.01496 -6.3754,7.39058 -2.01012,2.39581 -5.25874,6.51754 -7.24851,9.17737 -1.98976,2.63965 -5.29928,7.28914 -7.32969,10.29397 -2.0507,3.00514 -5.1572,7.85784 -6.90333,10.76122 -1.76642,2.92354 -4.22321,7.20786 -5.48201,9.5022 -1.23854,2.29434 -2.98469,5.624 -3.87804,7.3906 -0.89338,1.76629 -2.65983,5.54302 -3.93897,8.36511 -1.29945,2.84257 -3.32982,7.61399 -4.50747,10.61911 -1.19793,3.00483 -3.00497,7.85754 -3.99988,10.78108 -1.01518,2.90368 -2.45676,7.47189 -3.24859,10.13171 -0.77157,2.63965 -1.98979,7.12657 -2.70043,9.96913 -0.69032,2.8224 -1.64461,6.88302 -2.09131,8.99462 -0.42635,2.13208 -1.17761,6.11173 -1.6446,8.85252 -0.467,2.74112 -1.11671,7.08624 -1.44155,9.6443 -0.34518,2.57885 -0.87309,7.26898 -1.17763,10.45655 -0.467,4.64979 -0.56851,8.85252 -0.56851,21.07535 0,12.22314 0.10145,16.42587 0.56851,21.07567 0.30466,3.18756 0.83245,7.8777 1.17763,10.45624 0.32484,2.55837 0.97455,6.90351 1.44155,9.64458 0.46699,2.74081 1.21825,6.72049 1.6446,8.85254 0.4467,2.11157 1.40099,6.17221 2.09131,8.99432 0.71064,2.84259 1.92886,7.32977 2.70043,9.96941 0.79183,2.65985 2.23341,7.22808 3.24859,10.13141 0.99491,2.92389 2.76135,7.69532 3.9187,10.61912 1.15727,2.92389 3.18769,7.69498 4.50745,10.61878 1.31972,2.92389 3.12679,6.76145 4.02017,8.52768 0.89335,1.76633 2.6395,5.09629 3.87804,7.39068 1.2588,2.29431 3.71559,6.57828 5.48202,9.50217 1.74613,2.90333 4.85263,7.75606 6.90333,10.7609 2.0304,3.00511 5.33992,7.65463 7.32969,10.29428 1.98976,2.65985 5.23838,6.78157 7.2485,9.17739 1.98976,2.37561 4.85259,5.70522 6.37541,7.3906 1.52277,1.68528 4.8729,5.21784 7.43118,7.83736 2.57863,2.61915 6.70028,6.61897 9.17737,8.87266 2.49739,2.25371 6.47692,5.72579 8.85248,7.73559 2.39586,1.99 6.59877,5.2995 9.33978,7.37046 2.74103,2.07097 7.81701,5.64448 11.26867,7.93879 3.45163,2.31452 8.22305,5.36032 10.61891,6.78157 2.39585,1.44147 5.94902,3.47175 7.8982,4.5481 1.92886,1.05578 6.27389,3.28901 9.64433,4.95416 3.37043,1.66481 8.79159,4.16207 12.08083,5.54297 3.26891,1.38064 8.487,3.45161 11.57318,4.58869 3.10649,1.13674 8.38549,2.90342 11.75593,3.93873 3.37047,1.03557 9.01495,2.61917 12.54781,3.49222 3.55314,0.89353 9.0555,2.13205 12.24321,2.76155 3.18773,0.62923 8.83218,1.56337 12.5478,2.11166 3.71562,0.52771 9.15704,1.17734 12.06051,1.44138 2.92375,0.26283 8.87278,0.64971 13.1975,0.85292 4.34505,0.20166 10.86259,0.26283 14.49698,0.14359 3.6141,-0.10083 8.77127,-0.34525 11.41075,-0.50785 2.65983,-0.18333 6.86271,-0.54794 9.33979,-0.81197 2.47708,-0.26274 6.61906,-0.77153 9.17735,-1.13709 2.55831,-0.36546 6.98451,-1.09639 9.82707,-1.62412 2.82225,-0.52806 7.30941,-1.46193 9.96921,-2.07096 2.65978,-0.60937 7.00482,-1.68537 9.66465,-2.4163 2.63948,-0.71079 7.71545,-2.25369 11.24834,-3.41091 3.55317,-1.15757 8.91339,-3.0458 11.91838,-4.2031 3.00494,-1.1371 8.14181,-3.28928 11.43106,-4.73075 3.2689,-1.46194 7.61395,-3.49221 9.64433,-4.5074 2.05071,-1.01517 5.44147,-2.80189 7.57336,-3.93898 2.13189,-1.15731 6.11145,-3.45161 8.85246,-5.07607 2.74105,-1.6242 7.51247,-4.67 10.61897,-6.74096 3.10646,-2.07098 8.10121,-5.62401 11.10618,-7.87771 3.00499,-2.27418 7.34999,-5.70557 9.64436,-7.61393 2.29431,-1.92893 5.84749,-4.99486 7.89821,-6.84241 2.03037,-1.84787 6.15207,-5.82721 9.17733,-8.85253 3.00498,-3.04546 7.12663,-7.3906 9.13676,-9.68499 2.01005,-2.2943 4.97441,-5.76639 6.57843,-7.71537 1.5837,-1.92893 4.73082,-5.98981 6.96424,-8.99466 2.25374,-3.0051 5.23839,-7.20786 6.65964,-9.33991 1.42129,-2.11158 3.89837,-5.94887 5.48207,-8.50721 1.5837,-2.57855 3.97956,-6.61897 5.31961,-9.01514 1.31977,-2.39574 3.61407,-6.74062 5.07597,-9.64429 1.46189,-2.92355 3.57349,-7.32943 4.66988,-9.80655 1.11672,-2.47704 2.98468,-6.96431 4.18262,-9.98963 1.19791,-3.00476 3.22829,-8.64924 4.52776,-12.52749 1.29942,-3.89838 3.08615,-9.82703 3.99986,-13.19734 0.89337,-3.37056 2.13192,-8.50746 2.7613,-11.41088 0.62941,-2.9238 1.64463,-8.20282 2.23344,-11.75586 0.58881,-3.53291 1.38066,-8.95401 1.72586,-12.0606 0.34512,-3.08611 0.83241,-7.79672 1.05579,-10.45653 0.24356,-2.90337 0.40604,-9.96914 0.40604,-17.84714 0,-7.87771 -0.16258,-14.94347 -0.40604,-17.84716 -0.22338,-2.65981 -0.71067,-7.37012 -1.05579,-10.45623 -0.36552,-3.10659 -1.07616,-8.16221 -1.58373,-11.2688 -0.50757,-3.08611 -1.36036,-7.79672 -1.90858,-10.45654 -0.54819,-2.63935 -1.72579,-7.59351 -2.59888,-11.00477 -0.87306,-3.41095 -2.39586,-8.77123 -3.39076,-11.89799 -0.99489,-3.14692 -2.68011,-8.10108 -3.73591,-11.02493 -1.07609,-2.92385 -3.12679,-8.06075 -4.54806,-11.41089 -1.44158,-3.37031 -3.99983,-8.9335 -5.70538,-12.38541 -1.70551,-3.45159 -4.24349,-8.30399 -5.62419,-10.78108 -1.38064,-2.47708 -3.8171,-6.59882 -5.4008,-9.17735 -1.58371,-2.55837 -4.06079,-6.39591 -5.48208,-8.50753 -1.42124,-2.13176 -4.40589,-6.3348 -6.65963,-9.33962 -2.23343,-3.00513 -5.38054,-7.06576 -6.96424,-8.99461 -1.60402,-1.94934 -4.56839,-5.42111 -6.57844,-7.71545 -2.01012,-2.29433 -6.13177,-6.63946 -9.13676,-9.68493 -3.02526,-3.02531 -7.14695,-7.00496 -9.17732,-8.85253 -2.05073,-1.84757 -5.6039,-4.91352 -7.89821,-6.84238 -2.29438,-1.90869 -6.41602,-5.17754 -9.15706,-7.2485 -2.74102,-2.07096 -6.80179,-4.99481 -9.01493,-6.51754 -2.21312,-1.52274 -5.62419,-3.77674 -7.57333,-5.01528 -1.94919,-1.23823 -5.7054,-3.5124 -8.36521,-5.05562 -2.65978,-1.56337 -7.28908,-4.10127 -10.29403,-5.66465 -3.00498,-1.56338 -8.02004,-3.97964 -11.10625,-5.38045 -3.10647,-1.42128 -8.02002,-3.51271 -10.94378,-4.66996 -2.92376,-1.15726 -7.9185,-3.00515 -11.10622,-4.08111 -3.18768,-1.07596 -8.04034,-2.61918 -10.78134,-3.41095 -2.74102,-0.79208 -6.94394,-1.94933 -9.33979,-2.5382 -2.39586,-0.60904 -7.24847,-1.66483 -10.78136,-2.37532 -3.53288,-0.71079 -8.38549,-1.58385 -10.78134,-1.92886 -2.39585,-0.36548 -6.29422,-0.89353 -8.69007,-1.17773 -2.39587,-0.2842 -7.02513,-0.7108 -10.29406,-0.95434 -3.28922,-0.24448 -9.94887,-0.52775 -14.82182,-0.60904 -4.85262,-0.0825 -11.37016,-0.0305 -14.47666,0.14363 z"
     id="path6-9"
     style="fill:#212322;fill-opacity:1;stroke-width:2.03038716"
     inkscape:export-filename="G:\Users\suitedoalex\sites\Inter-miami-cf-logo-4.png"
     inkscape:export-xdpi="75.650612"
     inkscape:export-ydpi="75.650612" />
  <path
     inkscape:connector-curvature="0"
     class="shp2"
     d="m 347.11688,123.78767 c -0.16257,0.12223 -0.26402,6.274 -0.22308,13.68477 l 0.0403,13.4412 c 4.95416,0.14057 6.25361,0.0398 6.33483,-0.16196 0.0611,-0.16197 0.0813,-6.31464 0.0403,-13.66459 l -0.0813,-13.33945 c -4.52775,-0.14363 -5.96932,-0.0825 -6.11145,0.0398 z m -31.95831,2.23353 c -0.93397,0.24447 -2.31463,0.7713 -3.06586,1.13678 -0.75125,0.38596 -2.15223,1.46192 -3.12681,2.37562 -1.0761,1.01517 -2.19283,2.49725 -2.80192,3.7358 -0.56852,1.11691 -1.19793,2.98465 -1.40097,4.14222 -0.28418,1.60402 -0.28418,2.61918 0,4.34483 0.20292,1.23853 0.83245,3.1674 1.40097,4.30447 0.60909,1.19791 1.74612,2.74112 2.80192,3.7361 0.97458,0.93388 2.63949,2.09113 3.69533,2.57854 1.0558,0.50757 2.80188,1.0558 3.85771,1.23854 1.34006,0.22307 2.63951,0.22307 4.18259,0 1.23854,-0.18335 3.12682,-0.73097 4.18262,-1.21838 1.0761,-0.48709 2.57857,-1.4008 3.37043,-2.07094 0.77151,-0.64969 1.84767,-1.82741 2.37553,-2.61919 0.54822,-0.79177 1.17764,-1.92886 1.40099,-2.49725 l 0.42636,-1.03562 c -5.29929,-1.78677 -5.98965,-1.9087 -6.09113,-1.56339 -0.0813,0.24446 -0.58883,1.07597 -1.13702,1.86805 -0.62942,0.93387 -1.54309,1.70548 -2.57859,2.23323 -0.95429,0.4874 -2.35525,0.85288 -3.39076,0.93417 -1.19793,0.0825 -2.23344,-0.0611 -3.20801,-0.46693 -0.81216,-0.32514 -1.86796,-0.95435 -2.39586,-1.40112 -0.50759,-0.44676 -1.25883,-1.38063 -1.68523,-2.09143 -0.4467,-0.7713 -0.85275,-2.07096 -0.9746,-3.22821 -0.16256,-1.48209 -0.0813,-2.29434 0.38578,-3.53288 0.32486,-0.87306 1.11674,-2.17241 1.74615,-2.86273 0.62941,-0.69032 1.72582,-1.52274 2.43647,-1.84789 0.79183,-0.345 2.03041,-0.58855 3.20801,-0.58855 1.19794,0 2.43646,0.24447 3.22829,0.58855 0.71065,0.32515 1.78675,1.05581 2.41618,1.62451 l 1.11672,1.03532 c 1.50247,-1.11662 2.53798,-1.88822 3.28924,-2.43645 0.75121,-0.52774 1.36034,-1.11661 1.38062,-1.29934 0.0214,-0.18335 -0.66999,-0.99499 -1.52275,-1.80693 -0.83248,-0.79208 -2.15222,-1.78676 -2.90347,-2.15224 -0.75122,-0.38596 -2.19282,-0.93419 -3.20801,-1.19791 -1.03551,-0.2628 -2.72073,-0.46724 -3.79682,-0.44676 -1.0558,0 -2.68012,0.22308 -3.6141,0.48741 z m 63.81508,-0.0611 c -1.07612,0.22307 -2.72073,0.83241 -3.6953,1.34 -0.95432,0.52774 -2.39586,1.60402 -3.20804,2.39578 -0.81213,0.81225 -1.84764,2.11161 -2.31463,2.90338 -0.46698,0.79178 -1.11671,2.29435 -1.42128,3.37062 -0.38575,1.36016 -0.50759,2.70016 -0.42639,4.64949 0.10146,2.35515 0.2842,3.08611 1.29947,5.15707 0.81216,1.66515 1.74612,2.94402 2.98467,4.10157 0.9746,0.93388 2.76133,2.15226 3.95925,2.72064 1.78673,0.83242 2.68012,1.0558 4.91355,1.15726 1.96947,0.10084 3.26891,-0.0305 4.66987,-0.42629 1.0558,-0.30559 2.57858,-0.93388 3.37046,-1.40112 0.79184,-0.46694 2.09128,-1.50226 2.90344,-2.29435 0.79183,-0.79176 1.92886,-2.39578 2.47708,-3.53287 0.56848,-1.15726 1.19793,-3.04547 1.38064,-4.18255 0.26403,-1.50227 0.26403,-2.70047 0.0214,-4.18256 -0.18275,-1.15726 -0.77155,-3.00484 -1.29944,-4.10127 -0.54823,-1.11693 -1.72583,-2.78176 -2.65979,-3.7361 -0.93401,-0.93387 -2.49741,-2.1116 -3.47199,-2.61918 -0.97457,-0.48711 -2.70042,-1.07597 -3.85771,-1.31952 -1.13702,-0.24447 -2.45679,-0.4266 -2.88317,-0.4266 -0.44669,0.0305 -1.68522,0.20169 -2.74103,0.4266 z"
     id="path8-4"
     style="fill:#ffffff;fill-opacity:1;stroke-width:2.03038716"
     inkscape:export-filename="G:\Users\suitedoalex\sites\Inter-miami-cf-logo-4.png"
     inkscape:export-xdpi="75.650612"
     inkscape:export-ydpi="75.650612" />
  <path
     inkscape:connector-curvature="0"
     class="shp1"
     d="m 380.02944,131.90923 c -0.46699,0.14057 -1.27915,0.4871 -1.76643,0.75113 -0.48729,0.2628 -1.44158,1.09644 -2.11161,1.80724 -0.79187,0.87306 -1.38067,1.96919 -1.72582,3.18758 -0.34516,1.23854 -0.44672,2.3145 -0.28419,3.28933 0.12162,0.79176 0.48727,1.94902 0.81214,2.57853 0.32488,0.60903 1.0558,1.58355 1.64461,2.15224 0.60912,0.56838 1.62432,1.25871 2.29435,1.52273 0.64971,0.2842 1.98975,0.50758 2.96436,0.50758 0.97458,0 2.25373,-0.20168 2.82225,-0.42629 0.56851,-0.24447 1.60401,-0.93418 2.29431,-1.52273 0.69033,-0.60934 1.54311,-1.68531 1.88826,-2.39611 0.36545,-0.71049 0.73093,-2.00983 0.81216,-2.90337 0.12162,-1.0558 -0.0214,-2.15225 -0.36549,-3.20804 -0.30467,-0.89323 -0.91364,-2.07096 -1.34005,-2.65982 -0.42639,-0.5684 -1.40096,-1.40081 -2.15219,-1.82742 -0.81218,-0.46693 -2.11162,-0.85258 -3.14712,-0.95434 -0.97456,-0.10084 -2.15219,-0.0398 -2.63948,0.10085 z"
     id="path10-7"
     style="fill:#212322;fill-opacity:1;stroke-width:2.03038716"
     inkscape:export-filename="G:\Users\suitedoalex\sites\Inter-miami-cf-logo-4.png"
     inkscape:export-xdpi="75.650612"
     inkscape:export-ydpi="75.650612" />
  <path
     inkscape:connector-curvature="0"
     class="shp2"
     d="m 409.63246,145.49254 c -2.53799,7.04528 -4.52775,12.87251 -4.4262,12.93363 0.0813,0.0611 1.42125,0.54821 2.96434,1.11661 l 2.82223,1.03531 c 0.934,-2.61916 2.13193,-6.03012 3.26892,-9.25833 1.11673,-3.22852 2.17253,-5.82722 2.31466,-5.78658 0.16257,0.0398 1.76645,4.42612 3.55318,9.72558 l 3.2486,9.6443 c 3.87805,1.38064 5.05566,1.66483 5.13689,1.54291 0.0611,-0.14057 2.11159,-5.82723 4.52774,-12.62896 2.41618,-6.82221 4.42626,-12.50703 4.44655,-12.6696 0.0403,-0.14056 -1.21821,-0.71048 -2.78159,-1.27919 -1.96951,-0.71048 -2.90348,-0.89322 -3.04559,-0.64967 -0.12162,0.20169 -1.38067,3.63434 -2.80195,7.63416 -1.42125,4.00011 -2.6395,7.28914 -2.74101,7.28914 -0.0813,0 -1.58371,-4.30449 -3.32982,-9.58349 -1.74615,-5.25852 -3.35017,-9.74575 -3.55321,-9.96913 -0.18274,-0.24447 -1.40096,-0.77161 -2.7004,-1.17743 l -2.33494,-0.77161 m -141.051,4.32466 c -1.78673,0.62951 -2.1725,0.89323 -2.19279,1.48209 0,0.40613 -0.4061,7.06577 -0.87309,14.80168 -0.48726,7.7356 -0.77154,14.0704 -0.62941,14.0704 0.12162,0 1.54308,-0.46693 3.1471,-1.03532 l 2.90343,-1.05581 c 0,-4.2232 0.10146,-5.6243 0.22308,-5.84768 0.1421,-0.2017 2.55833,-1.1979 5.38055,-2.21307 l 5.15719,-1.84756 4.18259,4.60885 c 4.60897,-1.6242 5.92874,-2.19259 5.86783,-2.31451 -0.0406,-0.10085 -4.52777,-4.99481 -9.96919,-10.8422 -6.1927,-6.65964 -10.11132,-10.63929 -10.45652,-10.61911 -0.30466,0.0306 -1.54308,0.38595 -2.74101,0.81224 z"
     id="path12-3"
     style="fill:#ffffff;fill-opacity:1;stroke-width:2.03038716"
     inkscape:export-filename="G:\Users\suitedoalex\sites\Inter-miami-cf-logo-4.png"
     inkscape:export-xdpi="75.650612"
     inkscape:export-ydpi="75.650612" />
  <path
     inkscape:connector-curvature="0"
     class="shp1"
     d="m 276.33759,146.73108 c -0.12164,1.15725 -0.20291,3.06594 -0.20291,4.26384 v 2.17241 c 4.36532,-1.56337 5.70538,-2.07095 5.7866,-2.13177 0.0813,-0.0611 -0.22307,-0.5687 -0.71063,-1.15756 -0.4873,-0.56839 -1.74615,-1.98967 -2.78163,-3.14692 l -1.88825,-2.09144"
     id="path14-0"
     style="fill:#212322;fill-opacity:1;stroke-width:2.03038716"
     inkscape:export-filename="G:\Users\suitedoalex\sites\Inter-miami-cf-logo-4.png"
     inkscape:export-xdpi="75.650612"
     inkscape:export-ydpi="75.650612" />
  <path
     inkscape:connector-curvature="0"
     class="shp2"
     d="m 241.11036,151.25864 -2.63948,1.58385 c 6.49722,10.84219 8.34489,14.03007 8.30424,14.05024 -0.0608,0.0305 -4.48713,-1.60402 -9.82706,-3.61417 l -9.74585,-3.67497 c -3.49227,2.11159 -4.46684,2.82239 -4.42625,2.94402 0.0403,0.12222 3.18772,5.36028 7.00482,11.65443 3.79685,6.29416 7.02518,11.45154 7.16728,11.45154 0.12162,0 1.31976,-0.64969 2.6395,-1.44176 1.34006,-0.79177 2.41618,-1.52274 2.41618,-1.60402 0,-0.10084 -1.80706,-3.20774 -4.02017,-6.92335 -2.21312,-3.71563 -3.97956,-6.82222 -3.93895,-6.92367 0.0403,-0.10084 4.34501,1.42128 9.58343,3.37031 5.21809,1.96951 9.60374,3.55336 9.72555,3.55336 0.14209,0 1.25883,-0.56871 2.49738,-1.27919 l 2.25371,-1.29966 c -10.76106,-17.8065 -13.98932,-23.0855 -14.13149,-23.20712 -0.12162,-0.12224 -1.40096,0.4871 -2.86284,1.36016 z M 451.07265,162.69 c -6.37537,4.66967 -11.63408,8.58851 -11.67471,8.7306 -0.0403,0.14363 1.03552,0.89323 2.39586,1.685 1.36035,0.81226 2.59892,1.50256 2.74106,1.54321 0.14209,0.0398 1.34005,-0.73095 2.6801,-1.68531 2.29432,-1.70547 2.43644,-1.76629 3.28921,-1.33999 0.48728,0.24447 2.61921,1.50256 4.7511,2.78175 2.13192,1.27919 3.89836,2.33498 3.95926,2.35514 0.0403,0.0398 -0.10146,1.46193 -0.32487,3.16741 l -0.42638,3.10659 c 4.24352,2.49725 5.50235,3.18756 5.54297,3.1674 0.0406,-0.0398 0.93395,-6.619 2.01008,-14.61893 1.07609,-7.99963 1.94918,-14.61863 1.94918,-14.72039 0,-0.0794 -1.01522,-0.73066 -2.25372,-1.44145 -1.23858,-0.7105 -2.4365,-1.27918 -2.65983,-1.25872 -0.22308,0.0306 -5.60387,3.85774 -11.97931,8.52769 z"
     id="path16-5"
     style="fill:#ffffff;fill-opacity:1;stroke-width:2.03038716"
     inkscape:export-filename="G:\Users\suitedoalex\sites\Inter-miami-cf-logo-4.png"
     inkscape:export-xdpi="75.650612"
     inkscape:export-ydpi="75.650612" />
  <path
     inkscape:connector-curvature="0"
     class="shp1"
     d="m 457.83386,165.0858 c -1.60399,1.21807 -2.94404,2.33498 -2.98465,2.45661 -0.0403,0.14362 1.03551,0.9137 2.39585,1.70547 1.36034,0.81225 2.55828,1.50257 2.65982,1.54321 0.10145,0.0398 0.36546,-1.17773 0.5888,-2.74111 0.24356,-1.5429 0.48729,-3.35013 0.56849,-4.01998 0.0611,-0.67015 0.0214,-1.19789 -0.10146,-1.19789 -0.12162,0.0305 -1.54312,1.03531 -3.12682,2.25369 z"
     id="path18-6"
     style="fill:#212322;fill-opacity:1;stroke-width:2.03038716"
     inkscape:export-filename="G:\Users\suitedoalex\sites\Inter-miami-cf-logo-4.png"
     inkscape:export-xdpi="75.650612"
     inkscape:export-ydpi="75.650612" />
  <path
     inkscape:connector-curvature="0"
     class="shp0"
     d="m 338.73138,168.96369 c -2.29436,0.14057 -6.21299,0.48741 -8.69008,0.7716 -2.47704,0.28419 -6.74088,0.87306 -9.50222,1.29936 -2.74102,0.44676 -7.22816,1.31982 -9.96916,1.92885 -2.74105,0.60934 -7.02518,1.66514 -9.50223,2.37562 -2.47708,0.71081 -6.59877,1.98969 -9.15704,2.84257 -2.5786,0.87306 -6.98454,2.51773 -9.82711,3.63434 -2.82221,1.13708 -8.12152,3.53288 -11.75592,5.31964 -3.61408,1.78676 -8.54791,4.38577 -10.94377,5.74594 -2.37557,1.38063 -6.21299,3.75626 -8.52762,5.27899 l -4.18259,2.78175 8.06063,0.18336 c 7.22815,-4.3653 12.08079,-7.00495 15.43094,-8.71043 3.37041,-1.70547 8.22307,-3.99982 10.80166,-5.07609 2.55828,-1.09613 6.31448,-2.57854 8.36518,-3.3095 2.03041,-0.73066 5.50236,-1.90839 7.71546,-2.5987 2.21315,-0.7108 6.19269,-1.84758 8.8525,-2.5382 2.65979,-0.69001 7.00483,-1.685 9.66465,-2.21305 2.65979,-0.52776 6.92364,-1.23854 9.48191,-1.60402 2.57859,-0.34501 6.47693,-0.83243 8.69005,-1.05581 2.57859,-0.2628 8.44642,-0.42629 16.2634,-0.42629 7.75605,0 13.64421,0.16196 16.10097,0.42629 2.1116,0.22309 5.94902,0.69033 8.52762,1.05581 2.5583,0.3453 6.84238,1.07626 9.48191,1.58385 2.65983,0.52774 7.08605,1.52274 9.82707,2.21305 2.74101,0.71079 7.30941,2.03032 10.13165,2.94402 2.84253,0.91371 7.55305,2.59901 10.47677,3.75625 2.90346,1.15727 7.41091,3.06595 9.9692,4.26386 2.55827,1.17773 6.47695,3.14723 8.69006,4.34512 2.21312,1.19789 5.80691,3.24838 7.95911,4.54805 l 3.95927,2.37531 8.18244,-0.16196 c -6.96422,-4.54804 -10.80165,-6.92336 -13.01476,-8.20254 -2.21315,-1.27918 -7.06574,-3.81739 -10.78135,-5.62431 -3.71562,-1.82741 -8.93372,-4.18256 -11.59351,-5.25853 -2.65983,-1.05579 -7.00482,-2.6803 -9.66465,-3.57352 -2.63952,-0.9137 -7.14696,-2.29434 -9.9692,-3.08642 -2.84256,-0.7713 -7.18756,-1.84758 -9.66465,-2.37532 -2.47704,-0.52805 -6.17238,-1.25902 -8.20278,-1.6245 -2.03034,-0.345 -6.15206,-0.93387 -9.17733,-1.27919 -3.00498,-0.36548 -7.9185,-0.79176 -10.9438,-0.9745 -3.00495,-0.18336 -8.14182,-0.30559 -11.41074,-0.2842 -3.28924,0.0306 -7.85762,0.16196 -10.15194,0.30559 z"
     id="path20-7"
     style="fill:#f6b4cd;stroke-width:2.03038716"
     inkscape:export-filename="G:\Users\suitedoalex\sites\Inter-miami-cf-logo-4.png"
     inkscape:export-xdpi="75.650612"
     inkscape:export-ydpi="75.650612" />
  <path
     inkscape:connector-curvature="0"
     class="shp2"
     d="m 482.19848,183.39988 c -4.812,5.66465 -8.73062,10.35478 -8.66972,10.39542 0.0403,0.0611 2.68012,2.33499 5.86781,5.05562 3.18771,2.70047 6.1318,5.23866 6.53783,5.60384 l 0.75124,0.67015 c 1.96952,-2.25369 2.82225,-3.28933 3.16744,-3.77643 l 0.64971,-0.89354 c -6.49726,-5.48191 -8.36518,-7.14673 -8.36518,-7.22802 0,-0.10084 3.02524,-3.71563 6.76115,-8.04028 3.71564,-4.34512 6.76123,-7.99993 6.76123,-8.12156 0.0214,-0.14363 -0.934,-1.07627 -2.09129,-2.09144 -1.15735,-1.03532 -2.21314,-1.86804 -2.35527,-1.86804 -0.12162,0 -4.18259,4.6498 -9.01495,10.29428 z m -280.35579,-4.0811 c -0.77154,0.38565 -3.41107,2.47708 -5.88814,4.64949 l -4.48716,3.93901 c 8.58853,9.60365 12.66961,14.17215 14.6391,16.34458 1.94919,2.1724 3.6344,3.93899 3.7156,3.93899 0.0813,0.0306 1.15731,-0.89352 2.35524,-2.01014 l 2.19283,-2.03032 c -5.76633,-6.4769 -7.3297,-8.46687 -7.20786,-8.62914 0.1421,-0.14056 3.47195,0.26281 7.41089,0.89324 l 7.16727,1.13708 c 1.86796,-1.56338 3.08618,-2.65982 3.93895,-3.41095 0.83245,-0.7716 1.42125,-1.46193 1.27915,-1.54321 -0.12162,-0.0611 -3.43137,-0.66985 -7.3094,-1.31983 -3.89834,-0.64967 -7.12663,-1.19789 -7.14695,-1.23853 -0.0403,-0.0306 0.14209,-0.75114 0.40604,-1.64436 0.24386,-0.89355 0.46701,-2.11161 0.44672,-2.74111 0,-0.60904 -0.26403,-1.70548 -0.58883,-2.41628 -0.32485,-0.69031 -1.21822,-1.84756 -2.01006,-2.53788 -0.77154,-0.69033 -1.88828,-1.46193 -2.45679,-1.68531 -0.5888,-0.24448 -1.94918,-0.4263 -3.06585,-0.4263 -1.42129,0.0306 -2.41618,0.22308 -3.39075,0.73097 z"
     id="path22-6"
     style="fill:#ffffff;fill-opacity:1;stroke-width:2.03038716"
     inkscape:export-filename="G:\Users\suitedoalex\sites\Inter-miami-cf-logo-4.png"
     inkscape:export-xdpi="75.650612"
     inkscape:export-ydpi="75.650612" />
  <path
     inkscape:connector-curvature="0"
     class="shp1"
     d="m 202.87817,185.61294 c -0.69031,0.50757 -1.62431,1.29935 -2.07098,1.76628 l -0.79184,0.83272 c 2.1928,2.3958 2.94402,3.22822 3.08615,3.39048 0.1421,0.20169 0.95431,-0.30559 2.05072,-1.27887 0.9949,-0.89354 1.94915,-2.01014 2.11157,-2.49757 0.20291,-0.56838 0.20291,-1.15724 -0.0214,-1.6853 -0.16258,-0.44646 -0.6091,-0.95404 -0.95426,-1.1166 -0.36551,-0.18336 -0.99489,-0.32485 -1.40099,-0.32485 -0.40606,0 -1.31976,0.40613 -2.01008,0.91371 z"
     id="path24-1"
     style="fill:#212322;fill-opacity:1;stroke-width:2.03038716"
     inkscape:export-filename="G:\Users\suitedoalex\sites\Inter-miami-cf-logo-4.png"
     inkscape:export-xdpi="75.650612"
     inkscape:export-ydpi="75.650612" />
  <path
     inkscape:connector-curvature="0"
     class="shp2"
     d="m 171.99601,209.97762 c -2.82223,3.63433 -5.17751,6.70028 -5.21809,6.8219 -0.0214,0.12223 4.66987,3.91884 10.43619,8.42623 5.78658,4.5074 10.65951,8.22302 10.86255,8.26366 0.18274,0.0398 2.11163,-2.19288 4.24352,-4.97433 2.15217,-2.78175 4.50745,-5.82722 5.23839,-6.74093 l 1.31976,-1.70547 c -3.37046,-2.72094 -4.44655,-3.51271 -4.58868,-3.51271 -0.12162,-0.0305 -1.72583,1.86805 -3.53288,4.18256 -1.82735,2.29433 -3.41105,4.18256 -3.55318,4.18256 -0.12162,-0.0306 -0.95428,-0.5684 -1.82737,-1.21807 -0.87303,-0.67016 -1.60396,-1.27918 -1.62428,-1.38064 -0.0214,-0.0825 1.13699,-1.66514 2.5786,-3.53287 1.42125,-1.84789 2.57856,-3.45162 2.55827,-3.5329 0,-0.10083 -0.95425,-0.89352 -2.09131,-1.76659 -1.15731,-0.89322 -2.21311,-1.60402 -2.37553,-1.60402 -0.16257,0 -1.25884,1.21837 -2.45677,2.72094 -1.17763,1.50226 -2.33494,3.025 -2.57862,3.39048 -0.42638,0.60934 -0.48725,0.58887 -2.23341,-0.81194 -0.99486,-0.79178 -1.78673,-1.52274 -1.78673,-1.60402 0,-0.10085 1.46187,-2.01016 3.22831,-4.26384 1.76643,-2.2537 3.22833,-4.22321 3.24863,-4.34514 0,-0.14362 -0.97461,-1.01515 -2.17252,-1.94902 -1.21824,-0.93418 -2.27404,-1.68531 -2.35527,-1.66484 -0.0813,0 -2.47706,2.98467 -5.31958,6.619 z"
     id="path26-7"
     style="fill:#ffffff;fill-opacity:1;stroke-width:2.03038716"
     inkscape:export-filename="G:\Users\suitedoalex\sites\Inter-miami-cf-logo-4.png"
     inkscape:export-xdpi="75.650612"
     inkscape:export-ydpi="75.650612" />
  <path
     inkscape:connector-curvature="0"
     class="shp0"
     d="m 229.61836,209.04344 c -0.1421,0.10084 -0.24355,32.60818 -0.22308,72.20083 0.0403,45.41955 0.18274,74.04808 0.4061,77.56049 0.18274,3.04578 0.6091,8.14203 0.97457,11.3296 0.34516,3.18787 1.07613,8.32478 1.60399,11.43107 0.52794,3.08643 1.46189,7.83739 2.07102,10.51763 0.62942,2.70021 1.56341,6.53776 2.1116,8.52743 0.5279,1.98992 1.70553,5.94912 2.59889,8.77124 0.89338,2.82237 2.57859,7.61393 3.7359,10.61912 1.15732,3.00476 3.00499,7.49203 4.10137,9.96907 1.11674,2.47712 2.92379,6.31468 4.02017,8.52767 1.11674,2.2131 3.10649,5.96935 4.44656,8.36517 1.34005,2.37561 3.51258,6.07078 4.83232,8.20283 1.31973,2.11157 3.49226,5.44128 4.83232,7.39059 1.31977,1.94906 3.89833,5.50237 5.70538,7.87771 1.82734,2.39609 4.81205,6.15234 6.68,8.36543 1.84762,2.21309 5.29932,6.07077 7.67485,8.56803 2.35525,2.49751 5.96934,6.11172 7.99972,8.04057 2.0507,1.92884 5.23839,4.81178 7.08606,6.41576 1.84764,1.58385 4.46684,3.77672 5.7866,4.85273 1.31975,1.05579 4.08108,3.16736 6.11148,4.67 2.05067,1.52269 5.66477,4.06063 8.06063,5.64449 2.37556,1.60398 6.15205,3.97959 8.36517,5.29914 2.21315,1.3403 6.3348,3.65483 9.17733,5.15738 2.82224,1.50256 6.76122,3.51235 8.7713,4.46671 l 3.61411,1.72598 c 5.60384,-2.68034 9.42097,-4.62931 12.06047,-6.03043 2.65979,-1.42125 6.96421,-3.85777 9.58345,-5.42115 2.61918,-1.58351 6.59874,-4.10124 8.85246,-5.62401 2.25374,-1.52303 5.98965,-4.1828 8.28399,-5.92891 2.31463,-1.72563 5.98964,-4.64952 8.20278,-6.49706 2.21312,-1.84763 6.27387,-5.44162 8.99459,-7.99971 2.74105,-2.53812 6.8627,-6.65992 9.15707,-9.13696 2.29431,-2.47677 5.68506,-6.31433 7.5327,-8.52742 1.84769,-2.21335 4.99478,-6.19268 6.98454,-8.83232 1.98979,-2.65986 4.62929,-6.35494 5.86784,-8.20257 1.23853,-1.86802 3.208,-4.91382 4.34501,-6.76135 1.15729,-1.86776 3.14711,-5.25855 4.44653,-7.55294 1.29945,-2.31478 3.55318,-6.65958 5.03535,-9.66477 1.48219,-3.00476 3.5532,-7.49202 4.60901,-9.96906 1.0558,-2.47713 2.84254,-7.02513 3.95926,-10.13176 1.137,-3.08605 2.68012,-7.65463 3.43134,-10.13167 0.75125,-2.47712 1.92889,-6.67979 2.59889,-9.31951 0.69034,-2.65977 1.66492,-7.00457 2.21314,-9.66442 0.5279,-2.63965 1.34005,-7.20787 1.78673,-10.13172 0.44667,-2.90337 1.03548,-7.55316 1.29945,-10.29397 0.26403,-2.74111 0.6497,-8.4464 0.83244,-12.69007 0.22308,-4.95417 0.30468,-32.50641 0.24386,-76.89065 l -0.10145,-69.15504 c -186.38954,-0.12224 -240.62117,-0.0611 -240.76329,0.0611 z"
     id="path28-6"
     style="fill:#efb2c8;fill-opacity:1;stroke-width:2.03038716"
     inkscape:export-filename="G:\Users\suitedoalex\sites\Inter-miami-cf-logo-4.png"
     inkscape:export-xdpi="75.650612"
     inkscape:export-ydpi="75.650612" />
  <path
     inkscape:connector-curvature="0"
     class="shp2"
     d="m 517.38511,218.18046 c -6.03022,4.26354 -11.00469,7.83706 -11.04533,7.95899 -0.0611,0.12224 1.29948,2.17241 2.98469,4.54804 1.70554,2.3958 3.55317,4.75125 4.1217,5.25883 0.5685,0.50759 1.58372,1.25871 2.23342,1.68501 0.67003,0.4266 2.09128,1.07626 3.14709,1.42127 1.09641,0.36549 2.80194,0.64968 3.93897,0.64968 1.11669,0 2.94404,-0.28419 4.10136,-0.62921 1.15735,-0.3453 2.80195,-1.1169 3.67502,-1.6853 0.87308,-0.58886 2.07101,-1.64467 2.68009,-2.35515 0.58885,-0.7108 1.44159,-2.01014 1.88826,-2.88321 0.42639,-0.89352 0.95431,-2.63965 1.15732,-3.87819 0.28419,-1.62418 0.30466,-2.78144 0.0611,-4.16208 -0.18274,-1.07628 -0.71065,-2.74111 -1.15731,-3.71562 -0.44668,-0.97482 -2.03038,-3.61417 -3.53286,-5.86787 -1.52282,-2.25369 -2.88319,-4.10127 -3.0253,-4.10127 -0.16258,0 -5.21811,3.49225 -11.22803,7.75608 z"
     id="path30-6"
     style="fill:#ffffff;fill-opacity:1;stroke-width:2.03038716"
     inkscape:export-filename="G:\Users\suitedoalex\sites\Inter-miami-cf-logo-4.png"
     inkscape:export-xdpi="75.650612"
     inkscape:export-ydpi="75.650612" />
  <path
     inkscape:connector-curvature="0"
     class="shp1"
     d="m 234.28826,284.89877 c 0,46.25229 0.12163,72.91131 0.32488,75.99743 0.2029,2.599 0.62941,7.12656 0.97457,10.05041 0.36548,2.92385 1.01519,7.47189 1.46186,10.13171 0.467,2.6598 1.31977,6.98446 1.90858,9.64432 0.58882,2.65977 1.60402,6.78157 2.25372,9.17731 0.64974,2.37569 2.01011,6.86287 3.0456,9.96915 1.01517,3.08615 2.80191,8.02009 3.95926,10.92351 1.15731,2.9238 3.14707,7.55319 4.42623,10.29392 1.27912,2.74115 3.47197,7.16751 4.91355,9.82737 1.42126,2.63938 3.67498,6.61897 4.99474,8.83206 1.31974,2.21301 3.57347,5.7664 4.99474,7.87797 1.42128,2.13179 3.53289,5.17725 4.66991,6.7611 1.15732,1.60406 3.71558,4.93369 5.70538,7.41081 1.96947,2.47704 4.93385,6.00995 6.57848,7.87796 1.6446,1.84763 4.44652,4.87286 6.23326,6.70027 1.78672,1.82741 5.07596,5.01499 7.28906,7.06583 2.21315,2.05075 5.76633,5.1775 7.87793,6.94383 2.13193,1.76659 5.88812,4.73074 8.36516,6.57862 2.47709,1.84763 6.6191,4.75096 9.17737,6.43624 2.5786,1.7055 6.84241,4.36536 9.50223,5.92873 2.65981,1.54317 7.61395,4.22315 11.02499,5.94913 l 6.19268,3.12675 c 9.09613,-4.58869 13.76605,-7.10642 16.24308,-8.5479 2.49737,-1.44172 6.98454,-4.26383 9.98953,-6.25376 3.00495,-1.98966 7.20789,-4.91356 9.33978,-6.49706 2.1116,-1.56338 6.09116,-4.73083 8.85246,-7.02513 2.74105,-2.29431 7.57338,-6.70028 10.74078,-9.78668 3.1674,-3.10628 7.4515,-7.51224 9.5022,-9.82703 2.05069,-2.29439 4.91354,-5.624 6.33482,-7.39068 1.42125,-1.76623 3.8374,-4.89299 5.3399,-6.92361 1.5025,-2.03036 4.18262,-5.86756 5.94904,-8.52742 1.76643,-2.63964 4.16229,-6.41602 5.3196,-8.34495 1.13703,-1.94932 3.24864,-5.7257 4.6699,-8.36508 1.42126,-2.65986 3.45166,-6.72075 4.52775,-9.01505 1.07613,-2.2944 2.82225,-6.27399 3.87805,-8.85255 1.05579,-2.55807 2.4974,-6.31433 3.22833,-8.36517 0.71061,-2.03026 1.88825,-5.56318 2.61918,-7.87796 0.71064,-2.2943 1.88828,-6.35494 2.5786,-8.99466 0.71064,-2.65977 1.84766,-7.73559 2.5583,-11.26842 0.69032,-3.53291 1.50247,-7.95933 1.76641,-9.8069 0.26402,-1.86805 0.69035,-5.40062 0.97461,-7.87771 0.26402,-2.47707 0.62941,-6.8222 0.81215,-9.64459 0.2029,-3.20805 0.32488,-31.63336 0.32488,-75.36793 V 213.65259 H 234.28826 m 286.65,9.6443 c -3.51252,2.49725 -6.35509,4.58868 -6.33476,4.66996 0.0214,0.0825 0.44668,0.77161 0.97455,1.52274 0.50763,0.75113 1.34006,1.74612 1.84769,2.23354 0.50759,0.46692 1.46187,1.09613 2.1319,1.36016 0.6497,0.28419 1.94915,0.50757 2.88314,0.50757 1.13703,0 2.21312,-0.24446 3.30952,-0.7716 0.87307,-0.44647 2.15222,-1.38063 2.80193,-2.09113 0.73097,-0.81224 1.42127,-1.98967 1.70554,-3.00514 0.32486,-1.07595 0.42637,-2.15192 0.28419,-2.98465 -0.12162,-0.71048 -0.56852,-1.92886 -0.9949,-2.72062 -0.42638,-0.81227 -1.09637,-1.84759 -1.50248,-2.335 l -0.71064,-0.89321"
     id="path32-1"
     style="fill:#212322;fill-opacity:1;stroke-width:2.03038716"
     inkscape:export-filename="G:\Users\suitedoalex\sites\Inter-miami-cf-logo-4.png"
     inkscape:export-xdpi="75.650612"
     inkscape:export-ydpi="75.650612" />
  <path
     inkscape:connector-curvature="0"
     class="shp0"
     d="m 218.22792,225.40849 c -1.84767,1.92886 -4.83235,5.25883 -6.63938,7.37043 -1.80705,2.13178 -4.87291,5.96932 -6.8018,8.52738 -1.94915,2.55836 -4.77139,6.55818 -6.29421,8.85252 -1.50248,2.29434 -3.93895,6.21318 -5.40081,8.69026 -1.4619,2.47708 -4.20291,7.6748 -6.11148,11.57316 -1.92885,3.89836 -4.20288,8.89316 -5.09626,11.08574 -0.89338,2.21336 -2.27402,5.86787 -3.0862,8.14204 -0.81213,2.25369 -2.27403,6.80174 -3.2283,10.13171 -0.95429,3.30949 -2.19284,8.04027 -2.72073,10.51736 -0.5482,2.47707 -1.36035,6.61898 -1.80705,9.17736 -0.44668,2.55805 -1.09638,7.18737 -1.44154,10.29396 -0.36548,3.08612 -0.79187,8.89318 -0.97461,12.87251 -0.22308,5.03545 -0.22308,9.52267 0,14.7812 0.20291,4.16239 0.62941,9.94897 0.95428,12.87281 0.34517,2.92385 0.91368,7.1877 1.29945,9.48203 0.38577,2.31448 1.19793,6.4971 1.82734,9.3396 0.60912,2.82247 1.90857,7.85758 2.86286,11.16707 0.95427,3.32996 2.41617,7.87796 3.2283,10.13167 0.81218,2.27417 2.19282,5.92873 3.0862,8.14208 0.89338,2.19253 3.16741,7.18739 5.09626,11.08576 1.90857,3.89829 4.64958,9.09602 6.11148,11.57314 1.46186,2.47704 3.89833,6.39589 5.40081,8.69028 1.52282,2.29431 4.34506,6.29412 6.29421,8.8522 1.92889,2.55834 5.05568,6.47719 6.94393,8.69028 1.86796,2.21301 5.64447,6.31425 8.3855,9.11623 2.76133,2.8019 6.59876,6.51754 8.52761,8.26365 1.94919,1.72598 4.71049,4.10158 6.13177,5.29949 1.40097,1.1777 4.30443,3.45153 6.43632,5.03538 2.1116,1.60407 6.11147,4.40596 8.85249,6.2129 2.74105,1.82741 7.08605,4.5074 9.64433,5.96934 2.57862,1.48208 7.7155,4.16241 11.43109,5.96926 3.71562,1.80693 9.15704,4.22324 12.08083,5.38046 2.90343,1.13708 7.10634,2.68033 9.31949,3.41126 2.21308,0.75114 6.05051,1.92892 8.52759,2.61925 2.47705,0.71045 6.76118,1.76623 9.50223,2.37526 2.74101,0.60936 6.80177,1.40112 9.0149,1.76658 2.21312,0.36556 4.42624,0.73102 4.91352,0.81232 0.4873,0.10083 0.85278,0.0301 0.79187,-0.162 -0.0403,-0.162 -2.03038,-1.56372 -4.42623,-3.0864 l -4.34504,-2.76129 c -7.47185,-1.70551 -11.45137,-2.70047 -13.66449,-3.30949 -2.21314,-0.60902 -6.05057,-1.7868 -8.54794,-2.59903 -2.47708,-0.83245 -6.09116,-2.11158 -8.04034,-2.86272 -1.94919,-0.75115 -5.56326,-2.27418 -8.04034,-3.37032 -2.47705,-1.09647 -6.67996,-3.12675 -9.33978,-4.48718 -2.65979,-1.38064 -6.49725,-3.51277 -8.52759,-4.71069 -2.03042,-1.19782 -5.6648,-3.49221 -8.04034,-5.07572 -2.39586,-1.60407 -6.00996,-4.14228 -8.06065,-5.66496 -2.03038,-1.52277 -5.07598,-3.89838 -6.7612,-5.27902 -1.66491,-1.38065 -4.99473,-4.28397 -7.3703,-6.43624 -2.37553,-2.15227 -6.21299,-5.94913 -8.52763,-8.42625 -2.31463,-2.47704 -5.60386,-6.17221 -7.28908,-8.20257 -1.70554,-2.03062 -4.44655,-5.50236 -6.09115,-7.71571 -1.64461,-2.19253 -4.02017,-5.52258 -5.25874,-7.39025 -1.23851,-1.84789 -3.22827,-4.97464 -4.40591,-6.9237 -1.17763,-1.92918 -3.22833,-5.56353 -4.58869,-8.04057 -1.34005,-2.47712 -3.59378,-7.02513 -4.99474,-10.1314 -1.42127,-3.08641 -3.51259,-8.16222 -4.66991,-11.24837 -1.15731,-3.10653 -2.63949,-7.37038 -3.2892,-9.50217 -0.62942,-2.11156 -1.72583,-6.03042 -2.41617,-8.6698 -0.69035,-2.65977 -1.68522,-7.06574 -2.21312,-9.82702 -0.5279,-2.74109 -1.17763,-6.55818 -1.4416,-8.50751 -0.2842,-1.94902 -0.64971,-4.91351 -0.83242,-6.59882 -0.18274,-1.685 -0.46699,-5.23835 -0.64973,-7.87771 -0.18274,-2.65982 -0.32488,-7.43124 -0.32488,-10.61911 0,-3.18757 0.1421,-8.10109 0.32488,-10.94365 0.18274,-2.82239 0.54818,-7.02512 0.81215,-9.31945 0.26402,-2.29435 0.77155,-5.92869 1.09641,-8.04028 0.34516,-2.13207 1.07609,-5.96932 1.60399,-8.52769 0.52793,-2.55836 1.56342,-6.84238 2.27402,-9.48202 0.73097,-2.65983 2.13195,-7.22803 3.1065,-10.13141 0.9746,-2.92385 2.53798,-7.20816 3.4923,-9.5022 0.93396,-2.29464 2.59889,-6.13189 3.69526,-8.52768 1.09645,-2.37564 3.08621,-6.35527 4.44656,-8.83236 1.34006,-2.47708 3.39076,-6.11141 4.56839,-8.04028 1.17764,-1.94903 3.1674,-5.07608 4.40591,-6.92366 1.23857,-1.86773 3.61413,-5.1977 5.25874,-7.3906 1.6446,-2.21305 4.38561,-5.68512 6.09115,-7.71543 1.68522,-2.03032 4.06078,-4.71061 5.23839,-5.96932 l 2.1725,-2.2537 -0.14209,-6.68012 m 256.70184,3.39079 0.0214,3.28933 c 3.87804,4.24336 6.19268,6.88303 7.63425,8.60867 1.4416,1.72595 3.95926,4.91382 5.58357,7.08623 1.60399,2.15225 4.04049,5.60384 5.40084,7.63415 1.36035,2.03032 3.3501,5.13691 4.42623,6.92366 1.07612,1.7666 3.12679,5.38046 4.54807,8.04028 1.4416,2.63965 3.57349,6.92367 4.7511,9.48203 1.17763,2.55837 2.86285,6.4769 3.73591,8.68996 0.8731,2.21304 2.37556,6.3348 3.32985,9.15718 0.95428,2.84257 2.19283,6.82191 2.74101,8.85253 0.54819,2.03031 1.40096,5.50238 1.90857,7.71544 0.50762,2.21305 1.29945,6.13159 1.74613,8.68994 0.46698,2.55837 1.11672,7.1877 1.48217,10.29398 0.34516,3.08643 0.79184,8.89316 0.9949,12.87282 0.28419,5.40092 0.28419,9.09606 0,14.61862 -0.20291,4.0811 -0.64974,9.94897 -0.9949,13.03508 -0.36545,3.10659 -1.01519,7.73591 -1.48217,10.29428 -0.44668,2.55805 -1.23851,6.4769 -1.74613,8.69 -0.50761,2.21299 -1.36038,5.68508 -1.90857,7.71536 -0.54818,2.03036 -1.78673,6.00995 -2.74101,8.85253 -0.95429,2.82238 -2.45675,6.94384 -3.32985,9.15693 -0.87306,2.21335 -2.55828,6.13186 -3.73591,8.6902 -1.17761,2.55842 -3.39076,6.98452 -4.91352,9.80664 -1.5228,2.8425 -3.71562,6.68005 -4.87293,8.52768 -1.15735,1.86801 -3.06589,4.83251 -4.2435,6.59874 -1.19792,1.76668 -3.45168,4.95417 -5.03538,7.06583 -1.5837,2.13205 -4.38565,5.68509 -6.23329,7.89818 -1.82734,2.19288 -6.59873,7.26895 -10.59861,11.26876 -3.99988,3.97933 -8.93372,8.62911 -10.9641,10.31414 -2.03037,1.70576 -5.50234,4.44657 -7.71545,6.11173 -2.21312,1.6648 -6.13182,4.40596 -8.71038,6.11138 -2.55826,1.7055 -6.98453,4.42618 -9.80677,6.05064 -2.84253,1.6242 -7.32969,4.02003 -9.9692,5.31937 -2.65979,1.29961 -7.14696,3.32996 -9.98951,4.50766 -2.82224,1.19791 -8.12153,3.14696 -11.75593,4.36527 -3.6141,1.21813 -9.19766,2.84259 -12.38537,3.63434 -3.18769,0.79184 -6.57844,1.60407 -7.55302,1.80694 -1.29945,0.2445 -2.86285,1.01517 -5.8069,2.88319 -2.21312,1.40112 -4.30442,2.76129 -4.6699,3.02533 -0.34517,0.26282 -0.56849,0.52806 -0.467,0.62949 0.0813,0.0826 2.47707,-0.26274 5.29932,-0.75141 2.84253,-0.48711 6.88302,-1.27886 9.01491,-1.7461 2.13191,-0.44651 6.17238,-1.48208 9.01494,-2.2537 2.82224,-0.79176 7.32967,-2.1724 9.96919,-3.08615 2.6598,-0.89318 7.00484,-2.51773 9.66465,-3.57351 2.65976,-1.07592 7.87786,-3.4314 11.59349,-5.25856 3.71561,-1.80719 8.56824,-4.34505 10.78137,-5.62426 2.21312,-1.27921 6.33477,-3.83756 9.17733,-5.70531 2.82225,-1.86802 6.88303,-4.69013 8.99463,-6.29411 2.13189,-1.58386 5.52264,-4.28432 7.55302,-5.98982 2.0304,-1.68529 5.64447,-4.89335 8.04033,-7.10644 2.37557,-2.21299 6.15209,-5.96933 8.36521,-8.36507 2.21311,-2.37561 5.46174,-6.07078 7.22817,-8.18236 1.78674,-2.13212 4.50747,-5.60387 6.09116,-7.73592 1.5837,-2.11166 4.06078,-5.6647 5.52267,-7.87806 1.4822,-2.213 3.7156,-5.74591 4.97443,-7.8777 1.25886,-2.13205 3.81714,-6.82218 5.64448,-10.45652 1.84767,-3.63435 4.30442,-8.91337 5.48206,-11.73574 1.17761,-2.84259 2.86282,-7.1467 3.73591,-9.58347 0.87306,-2.41595 2.23341,-6.61897 3.00496,-9.31944 0.77153,-2.7002 1.84765,-6.72049 2.39585,-8.9335 0.52793,-2.21309 1.34006,-5.96933 1.78673,-8.36515 0.4467,-2.37561 1.09645,-6.43654 1.44161,-8.99461 0.36544,-2.55837 0.83244,-6.55818 1.05579,-8.85253 0.26403,-2.57852 0.42638,-8.66977 0.42638,-15.91828 0,-7.24849 -0.16256,-13.33975 -0.42638,-15.91829 -0.22308,-2.29434 -0.69035,-6.29415 -1.05579,-8.85252 -0.36548,-2.55836 -1.01523,-6.61898 -1.44161,-8.99462 -0.44667,-2.39579 -1.44154,-6.88302 -2.21312,-9.9893 -0.77154,-3.08642 -2.01005,-7.57334 -2.76131,-9.96944 -0.73092,-2.37532 -2.05068,-6.29416 -2.94407,-8.68995 -0.89335,-2.37562 -2.49738,-6.35497 -3.55317,-8.83204 -1.05581,-2.4774 -3.35014,-7.32979 -5.09627,-10.78139 -1.74614,-3.4519 -4.22319,-7.99994 -5.48205,-10.1317 -1.25883,-2.13208 -3.49223,-5.66497 -4.97443,-7.87801 -1.46189,-2.21307 -3.93897,-5.76611 -5.52267,-7.87771 -1.58369,-2.13207 -4.30442,-5.60414 -6.09116,-7.73591 -1.76643,-2.1116 -4.97442,-5.76641 -7.14696,-8.12156 -2.1522,-2.33498 -3.97958,-4.24337 -4.08105,-4.24337 -0.0813,0 -0.14241,1.48209 -0.14241,3.28902 z"
     id="path34-1"
     style="fill:#efb2c8;fill-opacity:1;stroke-width:2.03038716"
     inkscape:export-filename="G:\Users\suitedoalex\sites\Inter-miami-cf-logo-4.png"
     inkscape:export-xdpi="75.650612"
     inkscape:export-ydpi="75.650612" />
  <path
     inkscape:connector-curvature="0"
     class="shp2"
     d="m 152.48397,239.11371 -4.93383,8.73061 c 1.19792,0.79176 2.35524,1.48209 3.35014,2.05079 l 1.78673,1.01515 3.39075,-6.07108 c 2.1116,1.1982 6.23331,3.51272 10.53771,5.90851 4.28411,2.41627 7.91852,4.38577 8.04033,4.38577 0.14209,0 0.85278,-1.07627 1.60399,-2.41626 0.75126,-1.31983 1.38067,-2.5379 1.38067,-2.72064 0,-0.18335 -3.95924,-2.51772 -8.77126,-5.19771 -4.83233,-2.68031 -8.95399,-5.03545 -9.15705,-5.23867 -0.30466,-0.2628 -0.0214,-1.01515 1.21822,-3.22821 0.87306,-1.60401 1.58371,-2.98465 1.58371,-3.06594 0,-0.0825 -1.15732,-0.77161 -2.53799,-1.52274 l -2.53795,-1.38064"
     id="path36-7"
     style="fill:#ffffff;fill-opacity:1;stroke-width:2.03038716"
     inkscape:export-filename="G:\Users\suitedoalex\sites\Inter-miami-cf-logo-4.png"
     inkscape:export-xdpi="75.650612"
     inkscape:export-ydpi="75.650612" />
  <path
     inkscape:connector-curvature="0"
     class="shp0"
     d="m 260.03354,254.97088 v 15.93846 h 9.33979 c 0,-14.72007 0.10145,-18.98393 0.24356,-18.98393 0.12162,0 2.98465,2.74111 6.35512,6.11142 l 6.11145,6.11142 12.71019,-12.71024 v 19.47133 h 9.33982 V 239.0526 h -9.48191 l -12.5681,12.54798 -12.54778,-12.54798 h -9.50223 m 52.22159,15.837 0.0813,15.85748 9.17736,0.16196 V 239.0523 h -9.33977 m 23.43065,15.61361 c -4.20291,8.56833 -7.65456,15.73554 -7.65456,15.91828 0,0.2017 1.82734,0.32485 4.83233,0.32485 h 4.83232 c 3.02527,-6.35528 3.95923,-8.28413 4.04045,-8.36512 0.0813,-0.10084 1.96948,1.64436 4.16231,3.85773 l 4.02017,4.01997 c 6.19266,-6.1114 8.08094,-7.8777 8.18245,-7.8777 0.10147,0 1.137,1.86774 2.27403,4.18256 l 2.0913,4.18256 c 7.49212,0 9.66465,-0.12224 9.66465,-0.24448 0,-0.14056 -3.47198,-7.3093 -7.71546,-15.91828 l -7.73579,-15.69491 -13.35996,0.0306 m 35.00388,15.81683 0.0813,15.85717 9.17732,0.16195 c 0,-14.45635 0.10145,-18.7199 0.24386,-18.80118 0.12162,-0.0825 2.98466,2.59871 6.35508,5.94884 l 6.11148,6.09126 12.71022,-12.71024 v 19.47132 h 9.33977 v -31.85673 h -9.4819 l -12.56809,12.54797 -12.5478,-12.54797 h -9.50222 m 52.22154,15.837 0.0813,15.85747 h 9.33978 l 0.16258,-31.69447 h -9.66465"
     id="path38-1"
     style="fill:#efb2c8;fill-opacity:1;stroke-width:2.03038716"
     inkscape:export-filename="G:\Users\suitedoalex\sites\Inter-miami-cf-logo-4.png"
     inkscape:export-xdpi="75.650612"
     inkscape:export-ydpi="75.650612" />
  <path
     inkscape:connector-curvature="0"
     class="shp2"
     d="m 537.44533,249.61061 -12.12142,6.00996 7.81699,15.57327 c 3.87803,-1.9695 4.99477,-2.68029 4.99477,-2.86303 0,-0.18336 -1.05579,-2.43645 -2.33495,-4.99481 -1.50247,-3.0253 -2.21314,-4.79158 -2.01009,-4.97433 0.18275,-0.16196 1.11671,-0.64967 2.09131,-1.07627 l 1.76641,-0.81195 c 3.00502,5.94916 3.97956,7.6748 4.10139,7.6748 0.1421,0 1.34007,-0.50757 2.65984,-1.11662 1.34005,-0.6295 2.41614,-1.27918 2.41614,-1.46192 0,-0.16196 -0.79183,-1.90869 -1.76644,-3.85771 -0.97457,-1.94933 -1.76644,-3.65481 -1.78673,-3.77674 0,-0.14363 0.81215,-0.64968 1.78673,-1.11662 0.97461,-0.4871 1.90857,-0.89323 2.09131,-0.89323 0.18274,0 1.34006,2.13178 2.5989,4.75095 1.25883,2.59902 2.35523,4.81206 2.41617,4.89335 0.0813,0.10085 1.31973,-0.40612 2.72068,-1.1166 1.42129,-0.71081 2.57861,-1.36047 2.57861,-1.46193 0,-0.0825 -1.66493,-3.59399 -3.71563,-7.79672 -2.03036,-4.20304 -3.81709,-7.61399 -3.93894,-7.61399 -0.14211,0.0305 -5.70538,2.72063 -12.36505,6.03014 z"
     id="path40-1"
     style="fill:#ffffff;fill-opacity:1;stroke-width:2.03038716"
     inkscape:export-filename="G:\Users\suitedoalex\sites\Inter-miami-cf-logo-4.png"
     inkscape:export-xdpi="75.650612"
     inkscape:export-ydpi="75.650612" />
  <path
     inkscape:connector-curvature="0"
     class="shp1"
     d="m 347.50262,250.72752 -2.1928,4.56821 4.52776,4.50739 4.7917,-4.83224 c -3.47195,-6.84237 -4.56836,-8.83204 -4.71047,-8.83204 -0.14211,0 -1.21826,2.07096 -2.41619,4.58868 z"
     id="path42-3"
     style="fill:#212322;fill-opacity:1;stroke-width:2.03038716"
     inkscape:export-filename="G:\Users\suitedoalex\sites\Inter-miami-cf-logo-4.png"
     inkscape:export-xdpi="75.650612"
     inkscape:export-ydpi="75.650612" />
  <path
     inkscape:connector-curvature="0"
     class="shp2"
     d="m 139.10374,266.80807 c -0.58884,1.6242 -1.01522,2.98467 -0.97461,3.00513 0.0406,0.0306 3.39076,1.17742 7.43121,2.57854 4.04048,1.38064 7.30941,2.67999 7.28911,2.86273 -0.0403,0.16196 -1.54308,0.83242 -3.32985,1.46193 -1.78672,0.6295 -6.09115,2.13176 -9.5428,3.30949 l -6.27391,2.15224 -1.60399,5.07609 c 19.45108,6.78126 25.2783,8.75076 25.50166,8.75076 0.22307,0 0.79183,-1.23854 1.27915,-2.72063 0.48728,-1.50257 0.81212,-2.80191 0.73092,-2.90337 -0.0813,-0.0825 -3.41103,-1.29966 -7.41091,-2.70046 -3.97956,-1.40111 -7.2688,-2.6803 -7.30938,-2.8224 -0.0403,-0.16195 4.14198,-1.72564 9.29917,-3.49223 5.17748,-1.78676 9.56311,-3.37031 9.78646,-3.55305 0.2029,-0.16196 0.75125,-1.36047 1.21822,-2.63965 l 0.8528,-2.33498 c -1.62435,-0.52775 -7.22822,-2.47709 -13.5224,-4.66967 -6.2739,-2.19288 -11.63412,-4.06093 -11.89809,-4.16239 -0.36544,-0.14057 -0.73093,0.52805 -1.52276,2.80192 z"
     id="path44-5"
     style="fill:#ffffff;fill-opacity:1;stroke-width:2.03038716"
     inkscape:export-filename="G:\Users\suitedoalex\sites\Inter-miami-cf-logo-4.png"
     inkscape:export-xdpi="75.650612"
     inkscape:export-ydpi="75.650612" />
  <path
     inkscape:connector-curvature="0"
     class="shp0"
     d="m 349.77667,288.43165 c -0.10145,0.18335 -0.9949,3.28932 -2.01008,6.92367 -1.0152,3.61416 -1.94919,6.68011 -2.07099,6.8222 -0.10145,0.12224 -2.65983,-2.07096 -5.66481,-4.87287 -3.02527,-2.80223 -5.52264,-4.934 -5.58355,-4.73108 -0.0403,0.20168 0.71065,3.41125 1.68523,7.12686 0.99489,3.71564 1.70553,6.82191 1.6243,6.90321 -0.10145,0.10083 -3.2892,-0.66985 -7.08605,-1.68531 -3.79681,-1.01516 -6.96422,-1.74612 -7.04543,-1.60402 -0.0813,0.12222 2.17253,2.27416 4.97444,4.75125 2.82225,2.45691 5.13689,4.5685 5.13689,4.64948 0.0214,0.10085 -3.08623,1.46192 -6.90333,3.06594 -3.81713,1.58387 -7.00482,3.06595 -7.08605,3.28933 -0.12162,0.32485 1.44158,0.40614 7.24851,0.40614 h 7.39057 c 0,-1.86806 0.22338,-3.20804 0.50764,-4.18256 0.28419,-0.97483 0.97454,-2.61949 1.54306,-3.67529 0.58882,-1.07597 1.82733,-2.63934 2.94407,-3.6545 1.05581,-0.97452 2.61921,-2.1116 3.45165,-2.51772 0.85277,-0.42629 2.37558,-0.995 3.39075,-1.25902 1.0152,-0.26281 2.5786,-0.48711 3.45167,-0.48711 0.89338,0 2.41614,0.16196 3.39075,0.32484 0.97458,0.18336 2.7004,0.79178 3.85775,1.36048 1.25883,0.62919 2.86282,1.80693 4.04046,2.98466 1.21822,1.21806 2.31463,2.72062 2.94405,4.01998 0.54818,1.15725 1.17759,3.04577 1.38066,4.18256 0.20292,1.15755 0.30467,2.39609 0.20292,2.74111 -0.0813,0.3453 -1.03552,1.48209 -2.11163,2.49724 -1.0964,1.03563 -2.82225,2.254 -3.95925,2.78175 -1.11672,0.52805 -2.96436,1.1979 -4.10139,1.48209 -1.21821,0.32484 -3.39072,0.5687 -5.15716,0.5687 -1.68524,0.0306 -3.91868,-0.16196 -4.99477,-0.38596 -1.0558,-0.22307 -3.08622,-0.95404 -4.50747,-1.62418 -1.70553,-0.81225 -3.18768,-1.82741 -4.42622,-3.02531 -1.01521,-0.99499 -1.90858,-1.70547 -1.98979,-1.56337 -0.0813,0.12223 0.0611,1.17773 0.28419,2.33497 0.24355,1.13709 0.89338,3.02531 1.48218,4.16239 0.58884,1.15726 1.86796,2.92355 2.86286,3.91854 1.17764,1.19789 2.59889,2.19288 4.20288,2.96448 1.5025,0.71049 3.28924,1.27888 4.6699,1.46162 1.36038,0.20169 3.0253,0.20169 4.18263,0.0398 1.05579,-0.14056 2.72068,-0.56838 3.69525,-0.93387 0.97461,-0.345 2.63955,-1.29935 3.71563,-2.07095 1.0558,-0.79178 2.55828,-2.29434 3.30953,-3.32997 0.77157,-1.03533 1.68524,-2.67999 2.0507,-3.65451 0.36547,-0.97452 0.75121,-2.59901 0.85276,-3.61417 l 0.22308,-1.84757 c 13.0554,0 14.59849,-0.0825 14.47665,-0.40612 -0.10146,-0.22308 -3.28921,-1.66484 -7.08602,-3.20805 -3.79685,-1.56337 -6.92363,-2.92385 -6.92363,-3.06595 0,-0.12223 2.31462,-2.29433 5.15719,-4.81206 2.84253,-2.53789 5.05565,-4.64949 4.91352,-4.73077 -0.1421,-0.0825 -3.30953,0.69032 -7.06576,1.6853 -3.75621,1.01517 -6.92361,1.76629 -7.02513,1.66483 -0.12162,-0.0825 0.6091,-3.26885 1.604,-7.06576 0.99493,-3.81708 1.76644,-7.02511 1.72585,-7.16721 -0.0611,-0.14362 -2.59891,2.07096 -5.66476,4.91351 -3.0456,2.8224 -5.6039,5.09627 -5.6648,5.05563 -0.0813,-0.0398 -0.95429,-3.04547 -1.96947,-6.65965 -1.0152,-3.63433 -1.94919,-6.8219 -2.09132,-7.08592 -0.12162,-0.2628 -0.30467,-0.34532 -0.38577,-0.16197 z"
     id="path46-8"
     style="fill:#efb2c8;fill-opacity:1;stroke-width:2.03038716"
     inkscape:export-filename="G:\Users\suitedoalex\sites\Inter-miami-cf-logo-4.png"
     inkscape:export-xdpi="75.650612"
     inkscape:export-ydpi="75.650612" />
  <path
     inkscape:connector-curvature="0"
     class="shp2"
     d="m 293.65677,292.43147 c -0.71064,0.3453 -1.5837,1.01514 -1.90858,1.52304 -0.34515,0.50757 -0.62941,0.95403 -0.62941,0.97451 -0.0214,0.0398 -6.4769,1.23854 -14.35481,2.65982 -7.87792,1.42128 -14.6391,2.65982 -15.04516,2.7408 -0.3858,0.10084 -0.71065,0.30559 -0.71065,0.48741 0,0.20169 6.88299,0.32484 20.03991,0.32484 18.41563,0 20.12113,0.0398 21.13632,0.56869 0.62945,0.30559 1.40099,1.0558 1.74615,1.68501 0.36545,0.60934 0.64971,1.6245 0.64971,2.2537 0,0.60933 -0.2842,1.60401 -0.62942,2.21335 -0.34515,0.58856 -1.13699,1.36016 -1.74615,1.68501 -0.95425,0.50758 -1.86793,0.60934 -6.11145,0.58886 -3.43136,0 -5.58354,0.16196 -6.84241,0.48741 -1.01515,0.26281 -2.61917,0.87306 -3.55313,1.34 -0.91371,0.46693 -2.55831,1.6853 -3.61415,2.70047 -1.05579,1.01514 -2.39585,2.67998 -2.96433,3.73578 -0.56851,1.03563 -1.25883,2.8832 -1.56341,4.12175 -0.34516,1.50255 -0.46696,3.00482 -0.36545,4.50738 0.10145,1.23855 0.46699,3.12677 0.85274,4.18256 0.36548,1.05581 1.13703,2.65983 1.70553,3.53288 0.58884,0.93418 15.22791,15.837 34.19173,34.82123 18.23289,18.25325 33.27804,33.13596 33.39985,33.05466 0.1421,-0.0826 0.24386,-2.80198 0.24386,-6.03017 v -5.86782 l -48.77004,-48.72939 h 7.08608 c 31.93797,31.91785 41.31835,41.1762 41.4402,41.1762 0.1421,0 0.24385,-2.35516 0.24385,-5.23836 v -5.21789 l -30.7402,-30.71995 h 7.08603 c 17.96894,17.9486 23.28856,23.16678 23.41037,23.16678 0.1421,0 0.16257,-1.0558 0.0611,-2.33498 -0.10146,-1.27919 -0.44669,-3.49223 -0.79183,-4.91352 -0.32489,-1.42128 -1.0558,-3.65481 -1.60404,-4.97432 -0.54818,-1.34031 -1.80705,-3.65482 -2.80192,-5.15739 -0.99489,-1.50226 -2.90346,-3.83724 -4.24352,-5.17723 -1.34005,-1.34031 -3.59377,-3.18788 -5.01506,-4.12175 -1.42124,-0.9137 -3.37043,-2.05079 -4.34503,-2.49755 -0.97454,-0.46694 -2.57856,-1.11662 -3.55316,-1.46193 -0.97459,-0.32483 -2.70042,-0.83241 -3.85773,-1.11662 -1.66492,-0.40612 -4.95416,-0.54821 -16.30402,-0.71048 l -14.21269,-0.18336 c -2.13192,-1.50256 -3.0862,-2.57883 -3.49227,-3.39077 -0.48729,-0.93418 -0.77155,-1.98998 -0.75126,-2.96449 0,-0.85258 0.22338,-2.07096 0.50761,-2.74111 0.26402,-0.66984 0.81216,-1.5429 1.19794,-1.9692 0.38576,-0.40612 1.25883,-1.01546 1.90857,-1.36046 1.01517,-0.50759 1.92886,-0.60904 5.64443,-0.60904 2.43651,0 5.29933,-0.14057 6.35513,-0.32515 1.05579,-0.16195 2.94407,-0.81194 4.18258,-1.42127 1.42132,-0.69001 2.82225,-1.685 3.77652,-2.72064 0.85277,-0.9137 2.01009,-2.61917 2.5786,-3.81707 0.97457,-2.03031 1.05581,-2.3958 1.05581,-5.54302 0,-3.16741 -0.0813,-3.53289 -1.07609,-5.64449 -0.58881,-1.23854 -1.4619,-2.63935 -1.92887,-3.12675 -0.46699,-0.48711 -0.79186,-0.93388 -0.71064,-1.01516 0.10145,-0.0825 2.70041,-0.87306 5.8069,-1.74613 3.08621,-0.87305 5.66477,-1.76628 5.70539,-1.94902 0.0611,-0.2628 -3.73592,-0.34531 -13.19751,-0.34531 -12.34476,0 -13.35994,0.0398 -14.57819,0.60903 z m 84.82956,-0.18336 c 0.26403,0.24448 2.98466,1.15757 6.03028,2.01014 l 5.54294,1.56338 c -1.25884,1.50257 -2.05069,2.80192 -2.55828,3.8782 -0.52793,1.0558 -1.07609,2.78144 -1.25886,3.85772 -0.20291,1.27918 -0.20291,2.63935 0,4.01999 0.18275,1.13708 0.67005,2.84256 1.11673,3.77673 0.42639,0.93387 1.4619,2.43644 2.31463,3.32967 0.83245,0.91371 2.11164,2.03031 2.82225,2.47708 0.69032,0.44676 2.07098,1.09643 3.04559,1.44176 1.42125,0.50758 2.98466,0.66984 7.75608,0.8324 5.70536,0.18336 6.03022,0.24448 7.24847,1.01517 0.81216,0.54822 1.56337,1.44144 2.15222,2.57853 0.48728,0.99499 0.87305,2.27418 0.87305,2.96449 0,0.64968 -0.22307,1.74612 -0.50761,2.41596 -0.26402,0.64968 -0.89338,1.60403 -1.36034,2.1116 -0.48729,0.50758 -1.29944,1.15757 -1.82736,1.44176 -0.85276,0.46693 -2.76134,0.56839 -15.12639,0.73066 -13.44117,0.16195 -14.31423,0.22307 -16.91312,0.9137 -1.50247,0.40612 -3.95925,1.27918 -5.46173,1.92916 -1.5025,0.64969 -3.75623,1.8271 -4.99475,2.61918 -1.23854,0.81194 -3.18773,2.33498 -4.32472,3.37031 -1.13705,1.0558 -2.92378,3.00514 -3.97958,4.32465 -1.0558,1.31983 -2.61921,3.85773 -3.47195,5.62431 -0.85276,1.76629 -1.84766,4.44659 -2.23343,5.94885 -0.36548,1.50256 -0.75122,3.97964 -0.85276,5.48221 l -0.18275,2.72063 23.7555,-23.63372 h 7.04546 l -30.71976,30.71996 v 10.94363 l 41.68382,-41.66359 h 7.06577 l -48.76989,48.7294 0.18275,12.08073 c 66.41397,-66.4546 67.38858,-67.46977 68.50528,-69.82491 0.69031,-1.42128 1.29944,-3.3095 1.50247,-4.6498 0.24385,-1.60372 0.24385,-2.92355 0,-4.5074 -0.20291,-1.42128 -0.79184,-3.20804 -1.60399,-4.83223 -0.77157,-1.60402 -1.84766,-3.14723 -2.80192,-4.0811 -0.85279,-0.83242 -2.41618,-2.03032 -3.49229,-2.65982 -1.05581,-0.62951 -2.90344,-1.36047 -4.10136,-1.62419 -1.38067,-0.30559 -3.87805,-0.48741 -6.92364,-0.48741 -3.87804,0 -4.93384,-0.10085 -5.8678,-0.54822 -0.60913,-0.30559 -1.44161,-1.07598 -1.84767,-1.68531 -0.40606,-0.62921 -0.73093,-1.56338 -0.73093,-2.09113 0,-0.54822 0.26402,-1.48209 0.56849,-2.09143 0.30466,-0.60903 1.07611,-1.46192 1.68523,-1.86774 l 1.13699,-0.73096 c 36.64849,0.0305 40.46563,-0.0398 40.1205,-0.38595 -0.22338,-0.22308 -7.02518,-1.60402 -15.12642,-3.06595 -8.08092,-1.46162 -14.70001,-2.67999 -14.7203,-2.72063 -0.0214,-0.0398 -0.32486,-0.50758 -0.67002,-1.05581 -0.36548,-0.52774 -1.25886,-1.21806 -1.9898,-1.52273 -1.19792,-0.50757 -2.72069,-0.56839 -14.7812,-0.56839 -11.43105,0 -13.35994,0.0611 -12.95388,0.44646 z m 177.35431,4.14222 c -7.16728,1.60372 -13.05537,2.92355 -13.09599,2.94402 -0.0406,0.0306 0.22308,1.33999 0.58881,2.92354 0.34515,1.60402 0.67002,2.94432 0.69032,3.00513 0.0406,0.0611 2.23344,-0.36547 4.89325,-0.93417 2.65979,-0.5684 4.97443,-1.07597 5.1572,-1.15726 0.16257,-0.0611 0.7106,1.66514 1.21822,3.83755 0.48729,2.17241 0.95426,4.01999 1.05579,4.10127 0.0813,0.0825 1.38068,-0.12224 2.88315,-0.4871 1.50248,-0.34532 2.74104,-0.79208 2.74104,-0.95434 0,-0.18336 -0.3858,-1.98999 -0.83249,-4.02029 -0.44669,-2.05049 -0.77153,-3.7358 -0.71063,-3.77644 0.0403,-0.0305 1.01518,-0.2628 2.17252,-0.54822 1.15733,-0.2628 2.17248,-0.38565 2.27403,-0.24447 0.10145,0.12223 0.69035,2.43644 1.29944,5.13691 0.58884,2.70046 1.15735,4.91351 1.25883,4.89334 0.0813,0 1.34006,-0.24447 2.80196,-0.56869 1.92885,-0.40613 2.6598,-0.69032 2.6598,-1.03532 -0.0214,-0.26281 -0.77154,-3.93902 -1.70551,-8.18268 -0.91372,-4.22321 -1.80706,-7.71545 -1.9898,-7.77625 -0.18274,-0.0398 -6.19267,1.23853 -13.35994,2.84256 z"
     id="path48-1"
     style="fill:#ffffff;fill-opacity:1;stroke-width:2.03038716"
     inkscape:export-filename="G:\Users\suitedoalex\sites\Inter-miami-cf-logo-4.png"
     inkscape:export-xdpi="75.650612"
     inkscape:export-ydpi="75.650612" />
  <path
     inkscape:connector-curvature="0"
     class="shp1"
     d="m 295.76836,296.47192 v 1.44176 h 5.46178 v -2.88321 h -5.46178 m 103.00155,1.44145 v 1.44176 h 5.46174 v -2.88321 h -5.46174"
     id="path50-0"
     style="fill:#000100;stroke-width:2.03038716"
     inkscape:export-filename="G:\Users\suitedoalex\sites\Inter-miami-cf-logo-4.png"
     inkscape:export-xdpi="75.650612"
     inkscape:export-ydpi="75.650612" />
  <path
     inkscape:connector-curvature="0"
     class="shp2"
     d="m 127.02294,309.75086 c -0.26403,1.54291 -0.40609,2.90337 -0.28419,3.0253 0.10145,0.10084 6.09115,1.25871 13.29901,2.55806 7.20788,1.29967 13.17724,2.29435 13.25843,2.21336 0.10145,-0.0825 0.40609,-1.46192 0.69035,-3.06594 0.2842,-1.58385 0.46697,-2.90337 0.42638,-2.92385 -0.0611,-0.0398 -5.86783,-1.07596 -12.91327,-2.33499 -7.02514,-1.2587 -13.0554,-2.29434 -13.38026,-2.29434 -0.50759,0 -0.69033,0.46694 -1.09639,2.8224 z m 438.15748,15.51216 c -6.31448,0.4263 -8.9134,0.73097 -9.9895,1.13678 -0.79186,0.32514 -1.96947,0.95435 -2.59889,1.40111 -0.64973,0.46694 -1.52283,1.27919 -1.96951,1.80694 -0.44667,0.52804 -1.03547,1.40111 -1.29943,1.92885 -0.2842,0.52806 -0.69033,1.90869 -0.91367,3.06595 -0.32488,1.66483 -0.32488,2.53789 0,4.32465 0.22338,1.23855 0.79186,2.9645 1.25883,3.83755 0.46699,0.87307 1.50249,2.13178 2.31466,2.82209 0.79183,0.69062 2.19279,1.54321 3.12679,1.88852 1.1776,0.42629 2.51766,0.6292 4.34503,0.6292 1.46189,0 5.92874,-0.22307 9.90826,-0.48711 3.97959,-0.2628 7.24851,-0.52804 7.28911,-0.56868 0.0214,-0.0398 -0.0403,-1.40081 -0.16255,-3.04547 l -0.20292,-2.98467 c -1.74609,0 -5.58354,0.22308 -9.66461,0.50758 -4.08109,0.26281 -7.91854,0.40613 -8.52762,0.2842 -0.62942,-0.10084 -1.5228,-0.48742 -2.0101,-0.81226 -0.48728,-0.345 -1.11673,-1.23853 -1.40097,-1.98966 -0.34517,-0.89353 -0.46697,-1.84757 -0.34517,-2.80192 0.10145,-0.79177 0.44671,-1.80724 0.79187,-2.2537 0.32485,-0.44676 1.09641,-1.0558 1.70554,-1.36047 0.85276,-0.44676 2.96437,-0.67014 9.78645,-1.09644 4.77142,-0.2842 8.77126,-0.6292 8.87278,-0.73096 0.12163,-0.10085 0.12163,-1.50226 0,-3.08611 -0.18274,-2.80193 -0.20291,-2.90338 -0.9949,-2.94402 -0.42635,-0.0306 -4.62927,0.20168 -9.31945,0.52774 z m 12.93356,10.02995 c 0,0.7716 0.10145,1.78676 0.22308,2.25369 0.14241,0.62951 0.9746,1.42129 3.00498,2.8224 1.56341,1.07596 3.00498,1.94903 3.22833,1.94903 0.2842,0 0.32484,-0.32484 0.16258,-1.1979 -0.1424,-0.66984 -0.24356,-2.05079 -0.24356,-3.06595 v -1.84757 c -3.87804,-1.44145 -5.29932,-1.94902 -5.68512,-2.07096 -0.6497,-0.20168 -0.69032,-0.12223 -0.69032,1.15726 z M 141.0935,351.35335 c -0.69033,0.16196 -1.82735,0.71079 -2.49738,1.17772 -0.67002,0.48712 -1.21824,0.95436 -1.21824,1.03534 0,0.10084 -0.2842,0.4874 -0.62941,0.89353 l -0.6294,0.71048 c -2.13191,-1.25871 -2.88317,-1.44145 -4.42625,-1.42127 -1.36035,0.0305 -2.37557,0.24447 -3.20802,0.69031 -0.67002,0.36548 -1.72582,1.13708 -2.31463,1.74612 -0.60913,0.58886 -1.40096,1.74643 -1.74614,2.5382 -0.58881,1.33999 -0.60913,1.88821 -0.40607,7.3906 0.12162,3.26885 0.32487,6.07078 0.44667,6.1927 0.12162,0.14363 6.19267,-0.0825 13.46147,-0.46724 7.28908,-0.40582 13.38027,-0.85259 13.5224,-0.99468 0.16257,-0.16197 0.10145,-3.18788 -0.10146,-6.76139 -0.22308,-3.93871 -0.54822,-6.92337 -0.81215,-7.61369 -0.26402,-0.62951 -0.83245,-1.64466 -1.29945,-2.254 -0.44667,-0.6292 -1.5228,-1.50227 -2.39585,-1.98967 -0.85277,-0.46694 -2.21312,-0.93387 -3.00498,-1.01516 -0.79184,-0.10084 -2.03038,-0.0398 -2.74103,0.14057 z"
     id="path52-9"
     style="fill:#ffffff;fill-opacity:1;stroke-width:2.03038716"
     inkscape:export-filename="G:\Users\suitedoalex\sites\Inter-miami-cf-logo-4.png"
     inkscape:export-xdpi="75.650612"
     inkscape:export-ydpi="75.650612" />
  <path
     inkscape:connector-curvature="0"
     class="shp1"
     d="m 141.68231,357.52588 c -0.38575,0.22309 -0.93397,0.7713 -1.19794,1.1979 -0.40606,0.64968 -0.44668,1.38064 -0.26402,3.81708 l 0.24385,3.00483 c 2.23344,-0.3056 3.39073,-0.40582 4.02017,-0.38566 h 1.11671 c -0.26404,-4.62932 -0.4873,-6.23334 -0.64972,-6.55818 -0.16256,-0.34531 -0.71063,-0.81224 -1.19791,-1.0558 -0.48733,-0.24447 -0.99491,-0.42629 -1.11674,-0.42629 -0.1421,0 -0.56852,0.18335 -0.95428,0.40612 z m -10.558,2.53789 c -0.34516,0.18336 -0.83245,0.58886 -1.05581,0.87307 -0.24355,0.30558 -0.40606,1.48209 -0.40606,2.92384 v 2.41597 c 1.62428,-0.38565 2.82221,-0.48711 3.71559,-0.48711 h 1.604 c -0.16258,-2.86304 -0.32485,-4.06094 -0.48727,-4.5077 -0.16257,-0.42628 -0.67006,-0.97451 -1.11673,-1.1979 -0.44668,-0.22307 -0.99487,-0.38565 -1.19793,-0.38565 -0.22308,0 -0.71061,0.16196 -1.05579,0.36548 z"
     id="path54-1"
     style="fill:#000100;stroke-width:2.03038716"
     inkscape:export-filename="G:\Users\suitedoalex\sites\Inter-miami-cf-logo-4.png"
     inkscape:export-xdpi="75.650612"
     inkscape:export-ydpi="75.650612" />
  <path
     inkscape:connector-curvature="0"
     class="shp2"
     d="m 570.19547,363.37327 c -0.12162,1.23854 -0.28418,2.80192 -0.36548,3.47207 -0.1421,1.17742 -0.16257,1.1979 -1.36035,1.0558 -0.67003,-0.0825 -5.36022,-0.5687 -10.43619,-1.0558 -5.07597,-0.48741 -9.31946,-0.81224 -9.42101,-0.73096 -0.10145,0.0825 -0.30466,1.46192 -0.48729,3.06595 -0.16257,1.58354 -0.26402,2.92354 -0.24385,2.96418 0.0406,0.0398 4.77142,0.52805 10.53771,1.09644 5.74602,0.54823 10.53774,1.0558 10.61893,1.13709 0.0813,0.0825 0,1.62419 -0.20291,3.41095 -0.20291,1.80692 -0.34519,3.30949 -0.32487,3.35013 0.0214,0.0398 1.34006,0.2017 2.94405,0.38596 1.5837,0.18336 2.92375,0.30562 2.94408,0.26277 0.0214,-0.0397 0.46696,-4.48718 0.9949,-9.88812 0.50757,-5.38045 0.85273,-9.90832 0.75122,-10.02995 -0.10146,-0.12223 -1.44158,-0.3453 -2.96437,-0.4874 l -2.76133,-0.24447"
     id="path56-8"
     style="fill:#ffffff;stroke-width:2.03038716"
     inkscape:export-filename="G:\Users\suitedoalex\sites\Inter-miami-cf-logo-4.png"
     inkscape:export-xdpi="75.650612"
     inkscape:export-ydpi="75.650612" />
  <path
     inkscape:connector-curvature="0"
     class="shp0"
     d="m 393.14576,368.85518 -2.25373,2.27417 0.1421,14.13154 c -6.86271,6.86252 -8.95402,8.75101 -9.09615,8.60863 -0.14209,-0.14057 -0.24386,-3.20771 -0.24386,-6.8424 l 0.0214,-6.59848 -4.52774,4.50739 0.0214,14.15169 -27.20719,27.18711 -27.20717,-27.18711 0.0214,-13.82683 -4.52778,-4.50741 c 0.0214,9.96916 -0.0813,12.974 -0.22307,13.11604 -0.1421,0.14368 -2.23344,-1.74611 -4.66989,-4.18253 l -4.42626,-4.4261 v -13.82687 l -4.50745,-4.50771 v 20.26342 l 13.82694,13.82683 v 71.89615 l -13.98936,0.162 v 4.50739 l 18.49683,0.16192 V 405.5231 l 23.97888,23.9585 -12.06051,12.06059 c 11.59351,11.59361 15.10607,14.96392 15.28884,14.96392 0.18274,0 3.69526,-3.37031 7.79665,-7.47189 l 7.49212,-7.49203 -12.06051,-12.06059 c 17.92833,-17.94855 23.32918,-23.16675 23.5525,-23.16675 0.34519,0 0.42638,6.94409 0.42638,35.71471 v 35.71446 h 18.3344 v -4.83251 h -13.82704 v -71.89615 l 13.82695,-13.82684 -0.16257,-20.58826"
     id="path58-0"
     style="fill:#f6b4cd;stroke-width:2.03038716"
     inkscape:export-filename="G:\Users\suitedoalex\sites\Inter-miami-cf-logo-4.png"
     inkscape:export-xdpi="75.650612"
     inkscape:export-ydpi="75.650612" />
  <path
     inkscape:connector-curvature="0"
     class="shp2"
     d="m 144.15938,387.55519 c -0.44668,0.10083 -4.42623,1.03531 -8.85249,2.09145 -4.42623,1.05578 -8.08092,1.94906 -8.14182,1.98966 -0.0611,0.031 0.20291,1.36051 0.56851,2.94402 0.36545,1.60407 0.69029,2.94403 0.73093,2.98463 0.0611,0.0611 3.77653,-0.79176 8.28396,-1.84755 4.52777,-1.07625 8.79158,-1.94931 9.50222,-1.94931 0.81215,0 1.70551,0.26283 2.41615,0.73093 0.62942,0.40616 1.38066,1.2386 1.68521,1.86811 0.30467,0.60901 0.56852,1.76623 0.56852,2.55833 0,0.89319 -0.24355,1.86777 -0.6497,2.49726 -0.36549,0.60902 -1.21823,1.29934 -2.0101,1.64468 -0.75125,0.34498 -4.91355,1.44147 -9.25858,2.45656 -4.32472,1.01552 -7.95908,1.90871 -8.04034,1.99001 -0.0813,0.0611 0.12162,1.38064 0.48732,2.90333 0.34516,1.52277 0.79187,2.82211 0.95429,2.8832 0.18274,0.0826 4.10136,-0.75106 8.69004,-1.84755 4.60897,-1.09639 9.09613,-2.31478 9.98952,-2.72093 0.89335,-0.40582 2.27404,-1.44148 3.08616,-2.29431 0.8731,-0.93389 1.74616,-2.2944 2.17254,-3.41101 0.42636,-1.11661 0.69032,-2.57847 0.69032,-3.69508 0,-1.01553 -0.22308,-2.63973 -0.48729,-3.61422 -0.26402,-0.97447 -0.83247,-2.35512 -1.23854,-3.06592 -0.42638,-0.71045 -1.36034,-1.82741 -2.09128,-2.49725 -0.73096,-0.64998 -2.01011,-1.50256 -2.86288,-1.86803 -0.83245,-0.36554 -2.39585,-0.71079 -3.45165,-0.77162 -1.0558,-0.0611 -2.29431,-0.0396 -2.74102,0.0396 z m 400.94052,3.24875 c -0.0611,0.14049 -0.79187,2.8425 -1.604,6.03008 -0.81219,3.18793 -1.48217,6.51754 -1.48217,7.41107 0,0.87305 0.18273,2.15192 0.38572,2.84259 0.22339,0.69032 0.91368,1.84754 1.5228,2.53786 0.62945,0.71054 1.70554,1.5836 2.41617,1.92884 0.71064,0.34508 1.94918,0.71055 2.74102,0.79185 0.79183,0.10082 2.03041,0 2.74103,-0.22309 0.71064,-0.22308 1.72582,-0.75114 2.25376,-1.1573 l 0.95425,-0.75141 c 1.86798,1.86802 2.88314,2.43678 4.02017,2.76155 1.11673,0.32486 2.29434,0.42629 3.14711,0.30558 0.75122,-0.10082 1.90857,-0.46689 2.57856,-0.81222 0.67006,-0.32486 1.74615,-1.19792 2.4162,-1.92885 0.64972,-0.73101 1.36036,-1.72597 1.54307,-2.19287 0.18273,-0.48711 0.91367,-3.20805 1.62431,-6.05064 0.69036,-2.82212 1.21825,-5.15703 1.17764,-5.15703 -0.0403,-0.031 -5.90845,-1.50263 -13.03511,-3.30948 -7.12663,-1.78681 -13.03505,-3.26888 -13.11627,-3.26888 -0.0611,0 -0.20292,0.12224 -0.2842,0.24442 z"
     id="path60-5"
     style="fill:#ffffff;fill-opacity:1;stroke-width:2.03038716"
     inkscape:export-filename="G:\Users\suitedoalex\sites\Inter-miami-cf-logo-4.png"
     inkscape:export-xdpi="75.650612"
     inkscape:export-ydpi="75.650612" />
  <path
     inkscape:connector-curvature="0"
     class="shp1"
     d="m 548.47032,400.69179 c -0.36545,1.50255 -0.69032,2.98462 -0.69032,3.30948 0,0.30559 0.28419,0.95436 0.64974,1.44173 0.50758,0.69033 0.91367,0.89318 1.84763,0.89318 0.85277,0 1.42128,-0.20165 1.88828,-0.73092 0.38574,-0.40616 0.99486,-1.92885 1.40096,-3.45161 0.38577,-1.52269 0.5888,-2.82203 0.44667,-2.94402 -0.1421,-0.10083 -1.23853,-0.4263 -2.43647,-0.71081 -1.19791,-0.30558 -2.23339,-0.52771 -2.29434,-0.52771 -0.0813,0 -0.44667,1.21804 -0.81215,2.72068 z m 10.45649,1.92884 c -0.36545,1.52268 -0.42638,2.31478 -0.18276,2.90333 0.16259,0.44676 0.64972,1.03565 1.03553,1.29968 0.44668,0.32486 1.09637,0.44677 1.68519,0.32486 0.54821,-0.0826 1.21825,-0.42628 1.54311,-0.73101 0.30466,-0.32477 0.77155,-1.44138 1.05579,-2.49725 0.26404,-1.07627 0.44672,-1.96946 0.40607,-2.01015 -0.0611,-0.0396 -1.1776,-0.36546 -2.51766,-0.73093 -1.31975,-0.34533 -2.43647,-0.6295 -2.45676,-0.6295 -0.0214,-0.0301 -0.2842,0.93388 -0.56854,2.07097 z"
     id="path62-6"
     style="fill:#212322;fill-opacity:1;stroke-width:2.03038716"
     inkscape:export-filename="G:\Users\suitedoalex\sites\Inter-miami-cf-logo-4.png"
     inkscape:export-xdpi="75.650612"
     inkscape:export-ydpi="75.650612" />
  <path
     inkscape:connector-curvature="0"
     class="shp2"
     d="m 158.63606,416.69128 c -1.31976,0.54829 -2.43646,1.01518 -2.4771,1.0354 -0.0403,0 0.85279,2.33491 2.0101,5.15737 1.15733,2.8425 1.98977,5.25846 1.84764,5.36024 -0.1421,0.12224 -4.44655,1.90836 -9.58342,3.97932 -5.13688,2.07097 -9.44126,3.85778 -9.5834,3.97968 -0.1421,0.10083 0.24356,1.42126 0.83243,2.92389 0.73095,1.80693 1.25885,2.7206 1.54311,2.63929 0.24354,-0.0396 5.90842,-2.2943 12.58841,-4.97429 6.67995,-2.70046 12.16202,-5.03546 12.16202,-5.21819 0,-0.18334 -1.401,-3.83756 -3.12679,-8.12161 -1.72586,-4.28398 -3.28924,-7.77619 -3.47201,-7.77619 -0.18274,0.0301 -1.40096,0.48711 -2.74099,1.01509 z m 380.61632,8.75076 c -0.69033,0.22309 -1.9289,0.73101 -2.72073,1.15757 -0.79183,0.40581 -2.1522,1.40085 -3.02526,2.21309 -0.85278,0.81196 -1.92886,2.13179 -2.39586,2.9238 -0.46701,0.79184 -1.09642,2.27392 -1.40097,3.2891 -0.32487,1.03557 -0.58883,2.7612 -0.58883,3.87815 0,1.09649 0.22308,2.8019 0.52795,3.77648 0.28418,0.97448 0.79183,2.31444 1.11668,2.96449 0.34517,0.66985 1.21824,1.88815 1.96945,2.70047 0.77158,0.81188 1.94922,1.88788 2.65982,2.35513 0.71064,0.48711 1.94917,1.13674 2.74104,1.44146 0.79184,0.30559 2.31465,0.69033 3.37044,0.83236 1.11671,0.16201 2.76134,0.14059 3.87805,-0.0396 1.0558,-0.16191 2.94404,-0.79176 4.18258,-1.38056 1.58369,-0.77162 2.76134,-1.64468 3.95926,-2.96425 0.95427,-1.03565 2.09131,-2.68023 2.53798,-3.65481 0.46699,-0.97449 0.97459,-2.7206 1.17764,-3.85768 0.24356,-1.56338 0.24356,-2.65986 -0.0406,-4.26384 -0.22308,-1.19792 -0.79184,-3.00485 -1.27913,-4.02028 -0.48732,-1.03532 -1.68523,-2.65987 -2.65981,-3.65457 -0.97461,-0.99496 -2.41616,-2.13205 -3.20802,-2.53812 -0.81215,-0.4059 -2.1116,-0.93388 -2.90343,-1.17744 -0.79187,-0.24451 -2.6192,-0.42663 -4.02017,-0.40615 -1.42128,0 -3.16739,0.20165 -3.87804,0.42628 z"
     id="path64-9"
     style="fill:#ffffff;fill-opacity:1;stroke-width:2.03038716"
     inkscape:export-filename="G:\Users\suitedoalex\sites\Inter-miami-cf-logo-4.png"
     inkscape:export-xdpi="75.650612"
     inkscape:export-ydpi="75.650612" />
  <path
     inkscape:connector-curvature="0"
     class="shp1"
     d="m 540.51124,431.49269 c -0.54821,0.22308 -1.48218,0.7514 -2.09131,1.15722 -0.5888,0.40615 -1.42128,1.19791 -1.80705,1.76666 -0.38577,0.56833 -0.87306,1.52269 -1.05583,2.15219 -0.16257,0.60902 -0.32484,1.6242 -0.32484,2.25369 0,0.60903 0.20291,1.76633 0.46696,2.55843 0.26404,0.81189 1.03552,2.03027 1.70557,2.74073 0.67,0.71079 1.78673,1.56371 2.49737,1.90871 0.71061,0.32486 1.86792,0.67019 2.57857,0.75114 0.71068,0.0826 2.09132,-0.0301 3.06588,-0.26283 1.42128,-0.32485 2.071,-0.73066 3.39076,-2.05048 1.19792,-1.19783 1.74614,-2.05075 2.05069,-3.24866 0.26404,-0.95436 0.36546,-2.15227 0.22308,-2.9645 -0.10145,-0.75115 -0.46695,-1.90837 -0.81213,-2.57856 -0.32489,-0.66985 -1.01521,-1.62411 -1.52283,-2.1317 -0.50757,-0.48746 -1.50247,-1.19792 -2.21308,-1.56338 -0.73096,-0.36555 -2.11162,-0.7108 -3.20804,-0.77163 -1.0761,-0.0611 -2.39585,0.0826 -2.94404,0.28417 z m -195.01867,5.70556 -4.18263,4.20276 8.69008,8.66981 8.69005,-8.68994 c -6.47693,-6.47693 -8.50734,-8.36516 -8.69005,-8.36516 -0.18274,0 -2.21314,1.88788 -4.50745,4.18253 z"
     id="path66-7"
     style="fill:#212322;fill-opacity:1;stroke-width:2.03038716"
     inkscape:export-filename="G:\Users\suitedoalex\sites\Inter-miami-cf-logo-4.png"
     inkscape:export-xdpi="75.650612"
     inkscape:export-ydpi="75.650612" />
  <path
     inkscape:connector-curvature="0"
     class="shp2"
     d="m 167.56975,447.10632 c -0.0813,0.12225 -0.0403,1.54316 0.0611,3.12702 l 0.18274,2.90341 c 3.30953,0.36547 4.24353,0.71045 5.15719,1.33995 0.71065,0.50759 1.76645,1.64467 2.33496,2.51773 0.58881,0.89327 1.13699,2.1724 1.25883,2.8832 0.10146,0.71054 0,2.09118 -0.24386,3.06601 -0.22338,0.97449 -0.85276,2.33466 -1.40099,3.02498 -0.54819,0.7108 -1.78673,1.68528 -2.7613,2.19288 -1.40101,0.71079 -2.19283,0.91366 -3.77654,0.89352 -1.0964,0 -2.47708,-0.20165 -3.06587,-0.44676 -0.56853,-0.22308 -1.54312,-0.85292 -2.13194,-1.36052 -0.6091,-0.50749 -1.44154,-1.64458 -1.84762,-2.53785 -0.50759,-1.0964 -0.75126,-2.21301 -0.75126,-3.45161 0,-1.01511 0.20291,-2.39574 0.48729,-3.06593 0.26402,-0.67011 0.48731,-1.23852 0.48731,-1.27922 -0.0214,-0.0396 -1.13702,-0.69032 -2.49736,-1.46185 -1.38066,-0.75116 -2.59892,-1.40087 -2.74104,-1.44148 -0.1421,-0.0396 -0.54821,0.60902 -0.91368,1.44148 -0.36546,0.85282 -0.79184,2.4162 -0.97458,3.47199 -0.22306,1.3199 -0.22306,2.57856 0,4.02037 0.20292,1.13674 0.83244,3.10628 1.42125,4.3448 0.67007,1.40112 1.72587,2.90332 2.82224,3.99981 0.99489,0.99496 2.57863,2.13205 3.67501,2.65985 1.0558,0.48738 2.94407,1.07627 4.18258,1.27913 1.72586,0.28425 2.74103,0.28425 4.34504,0 1.15731,-0.22308 2.88315,-0.77162 3.85775,-1.21804 0.97457,-0.46699 2.61922,-1.66516 3.65469,-2.65986 1.09643,-1.05579 2.25374,-2.61916 2.82225,-3.73603 0.52789,-1.076 1.11671,-2.94403 1.31973,-4.18263 0.30466,-1.74611 0.28419,-2.74107 0,-4.3448 -0.20292,-1.15756 -0.83245,-3.0458 -1.38064,-4.18288 -0.62942,-1.31948 -1.68522,-2.76121 -2.82223,-3.87781 -0.9949,-0.97458 -2.61923,-2.15227 -3.5938,-2.61925 -0.9746,-0.4669 -2.41616,-1.0151 -3.208,-1.19783 -0.81216,-0.18342 -1.98981,-0.34534 -2.63951,-0.34534 -0.67006,0 -1.25887,0.10083 -1.31977,0.24442 z m 348.92196,12.06051 c -1.13699,1.62455 -3.3501,4.7919 -4.9135,7.04561 -1.5634,2.23322 -2.82225,4.14193 -2.78163,4.26383 0.0214,0.10084 1.13699,0.91375 2.45675,1.78681 l 2.41618,1.60398 c 4.7511,-6.9643 6.27389,-8.99458 6.43632,-8.99458 0.18274,0 4.06077,2.55808 8.60883,5.68484 4.56836,3.12701 8.50734,5.68509 8.77128,5.70557 0.24386,0.0301 1.15732,-0.99496 2.01009,-2.23357 0.85276,-1.23852 1.54309,-2.31443 1.56338,-2.39574 0,-0.10083 -4.99472,-3.61421 -11.12648,-7.81723 -6.11148,-4.20275 -11.16713,-7.63415 -11.24839,-7.63415 -0.0813,0 -1.07609,1.34004 -2.19283,2.98463 z"
     id="path68-0"
     style="fill:#ffffff;fill-opacity:1;stroke-width:2.03038716"
     inkscape:export-filename="G:\Users\suitedoalex\sites\Inter-miami-cf-logo-4.png"
     inkscape:export-xdpi="75.650612"
     inkscape:export-ydpi="75.650612" />
  <path
     inkscape:connector-curvature="0"
     class="shp0"
     d="m 219.01976,509.17544 c -0.67004,3.14689 -1.29945,5.88805 -1.42125,6.09126 -0.12164,0.22307 -2.59892,0.91366 -5.52265,1.5429 -2.92379,0.62949 -5.56329,1.21839 -5.86787,1.2996 -0.32483,0.0826 -0.56851,0.26283 -0.56851,0.40582 -0.0214,0.12224 2.55833,0.8123 5.70541,1.50263 3.14711,0.69032 5.88814,1.42125 6.07084,1.60398 0.2029,0.18334 0.93399,2.9239 1.62431,6.05065 0.69035,3.18749 1.3807,5.66461 1.56341,5.60378 0.18274,-0.0611 0.87309,-2.70045 1.56342,-5.86781 0.69031,-3.16745 1.36033,-5.82722 1.48217,-5.92874 0.14241,-0.0826 2.88315,-0.73093 6.09116,-1.44138 3.20801,-0.71081 5.84751,-1.40113 5.84751,-1.52311 -0.0214,-0.14059 -0.26402,-0.3056 -0.56849,-0.3856 -0.32489,-0.0826 -3.04561,-0.69033 -6.09118,-1.36052 l -5.50235,-1.23852 c -1.84767,-8.4666 -2.43647,-11.18719 -2.51765,-11.49183 -0.0813,-0.30558 -0.26404,-0.56841 -0.42639,-0.56841 -0.1421,0 -0.81216,2.57855 -1.46189,5.7053 z m 258.7931,0.16192 c -0.69032,3.22827 -1.34006,5.96934 -1.44158,6.09125 -0.10145,0.14367 -2.57859,0.75114 -5.50234,1.38065 -2.92373,0.62923 -5.56325,1.21804 -5.8881,1.29933 -0.30467,0.0826 -0.54821,0.26283 -0.56854,0.40616 0,0.12225 2.5786,0.79176 5.72571,1.48208 3.14711,0.69032 5.86784,1.38064 6.03026,1.50256 0.18274,0.14367 0.91367,2.86271 1.6243,6.07076 0.71065,3.20806 1.42125,5.7664 1.60399,5.70532 0.18275,-0.0611 0.87307,-2.70012 1.5634,-5.86757 0.69036,-3.16736 1.36035,-5.82722 1.50248,-5.92899 0.14211,-0.0826 2.88315,-0.73093 6.07088,-1.44147 3.20801,-0.7108 5.82722,-1.40104 5.82722,-1.52269 0,-0.14057 -0.32487,-0.32486 -0.73097,-0.40616 -0.38577,-0.10082 -3.02524,-0.69032 -5.8678,-1.31981 -2.82225,-0.6295 -5.23841,-1.23852 -5.36023,-1.36017 -0.12162,-0.12226 -0.67003,-2.31479 -1.23854,-4.87313 -0.54818,-2.57855 -1.15731,-5.21794 -1.31973,-5.88803 -0.16257,-0.64972 -0.40609,-1.19792 -0.54822,-1.19792 -0.1421,0 -0.81216,2.63929 -1.48219,5.86783 z"
     id="path70-0"
     style="fill:#efb2c8;fill-opacity:1;stroke-width:2.03038716"
     inkscape:export-filename="G:\Users\suitedoalex\sites\Inter-miami-cf-logo-4.png"
     inkscape:export-xdpi="75.650612"
     inkscape:export-ydpi="75.650612" />
  <path
     inkscape:connector-curvature="0"
     class="shp2"
     d="m 413.99781,537.98667 c -1.62431,0.56842 -3.08616,1.17744 -3.24863,1.36017 -0.18274,0.16201 -0.99488,2.37561 -1.80702,4.89334 -0.81219,2.51773 -1.60402,4.5887 -1.72586,4.5887 -0.14209,0 -1.98976,-1.38065 -4.10136,-3.04545 -2.13192,-1.68529 -4.0811,-3.06593 -4.34504,-3.06593 -0.26402,0 -1.86795,0.36546 -3.55317,0.81188 -1.68525,0.42664 -3.0862,0.83271 -3.12679,0.87306 -0.0611,0.0396 2.80193,2.35547 6.35509,5.15737 3.53289,2.7815 6.43632,5.23842 6.43632,5.46175 -0.0214,0.22308 -1.29941,3.87791 -2.88314,8.12161 -1.56338,4.24337 -2.76131,7.75606 -2.6395,7.81689 0.12162,0.0396 1.66492,-0.28425 3.43133,-0.73102 1.76644,-0.44676 3.22833,-0.85258 3.24862,-0.89318 0.0214,-0.0396 0.8731,-2.39609 1.9086,-5.23834 1.03548,-2.82245 1.94915,-5.23867 2.0507,-5.36032 0.10145,-0.12224 2.29431,1.33995 4.85259,3.24866 l 4.6699,3.49223 c 5.23842,-1.7259 6.61905,-2.33492 6.43635,-2.47704 -0.16258,-0.14359 -3.32985,-2.4976 -7.00486,-5.27902 -5.21807,-3.93899 -6.61905,-5.15737 -6.47693,-5.60379 0.10146,-0.30559 1.34005,-3.85803 2.74105,-7.87806 1.60399,-4.62931 2.39582,-7.30929 2.13189,-7.28916 -0.22308,0 -1.72584,0.46698 -3.35014,1.03565 z m -132.84823,-0.0396 c -0.10145,0.22308 -1.78672,6.11147 -3.73591,13.0553 -1.94916,6.94383 -3.47194,12.77104 -3.37044,12.93364 0.0813,0.18334 1.34003,0.71046 2.80192,1.15722 1.4619,0.4669 2.76134,0.71081 2.86286,0.56868 0.12162,-0.14058 1.11673,-3.53283 2.21312,-7.5125 1.09643,-3.97968 2.1116,-7.45142 2.25371,-7.71546 0.14211,-0.30558 0.99491,1.60398 2.4568,5.56319 1.21821,3.30949 2.31464,6.03016 2.45675,6.03016 0.12163,-0.0301 2.33497,-1.68502 4.91352,-3.71564 2.55831,-2.03027 4.79175,-3.65447 4.95417,-3.61386 0.1421,0.0396 -0.62942,3.3297 -1.76645,7.30929 -1.1167,3.97968 -2.05069,7.49211 -2.05069,7.81689 -0.0214,0.34533 0.30467,0.62957 0.8731,0.75148 0.48728,0.10083 1.74611,0.40582 2.80192,0.64963 1.07612,0.26283 2.03037,0.34508 2.15221,0.22309 0.12162,-0.14058 1.80705,-5.98973 3.77652,-12.97426 1.96947,-6.98443 3.57347,-12.85235 3.57347,-13.01486 0,-0.18342 -1.11671,-0.58864 -2.49734,-0.89327 -1.36039,-0.30559 -2.63953,-0.56842 -2.82225,-0.56842 -0.16257,-0.0301 -2.78165,1.92893 -5.78662,4.32466 -5.25871,4.18255 -5.48205,4.32467 -5.82721,3.63435 -0.18274,-0.38569 -1.31977,-3.39079 -2.49737,-6.65967 l -2.15222,-5.94912 c -3.59377,-1.19791 -4.81202,-1.60399 -5.01506,-1.68502 -0.2029,-0.10084 -0.44666,0.0396 -0.56851,0.28424 z m 99.14379,8.58851 -2.86285,0.52781 c -3.65469,6.72074 -4.8729,8.66972 -5.03536,8.66972 -0.18274,0 -1.80705,-1.64468 -3.61407,-3.69518 l -3.28923,-3.69542 c -3.02527,0.162 -4.66988,0.30559 -5.6242,0.42629 l -1.70549,0.22309 c 8.52762,9.4619 10.98441,12.32462 10.98441,12.46666 0,0.12225 -1.86798,3.4923 -4.18258,7.47189 -2.29438,3.97934 -4.14201,7.30938 -4.10143,7.37012 0.0403,0.0826 1.60403,0.0396 3.45165,-0.0826 l 3.35017,-0.20166 c 4.52776,-7.83701 5.90843,-10.09106 6.00993,-10.05045 0.10145,0.0396 1.94918,1.94941 4.1014,4.24371 l 3.93894,4.18254 c 5.11655,-0.87305 6.61906,-1.15722 6.65968,-1.19792 0.0403,-0.0396 -2.53799,-2.90332 -5.72571,-6.35527 -3.18769,-3.45153 -5.78663,-6.33473 -5.7663,-6.43625 0,-0.0826 1.74613,-3.26879 3.85773,-7.06573 2.11163,-3.81708 3.83742,-7.02513 3.85775,-7.16725 0,-0.12218 -0.32487,-0.223 -0.71062,-0.20167 -0.40608,0.0301 -2.03039,0.26283 -3.59381,0.56841 z m -60.871,14.13155 c -0.5279,7.4719 -0.85277,13.64411 -0.69032,13.78624 0.1424,0.14358 1.52281,0.44676 3.06588,0.64963 1.52281,0.22307 2.80195,0.36546 2.82225,0.32485 0.0214,-0.0396 0.26402,-3.30948 0.54819,-7.30929 0.30466,-3.97968 0.5279,-7.63416 0.5279,-8.12162 0,-0.48711 0.10145,-0.87304 0.24354,-0.89318 0.1421,0 1.72584,2.39574 3.53288,5.31963 1.82735,2.92355 3.37047,5.31963 3.47195,5.31963 0.0813,0 2.03041,-2.25396 4.34507,-4.99477 3.89833,-4.64978 4.18259,-4.91356 4.16227,-3.93907 0,0.56841 -0.20291,3.71564 -0.467,7.00465 -0.24355,3.26923 -0.467,6.55823 -0.467,7.30964 l -0.0214,1.36017 h 6.13178 c 0.24385,-2.11158 0.67002,-8.22304 1.11673,-14.94345 0.46696,-6.72074 0.79183,-12.24333 0.73092,-12.26346 -0.0403,-0.0309 -1.31976,-0.12225 -2.82223,-0.20174 l -2.74104,-0.18333 c -6.98454,8.40577 -9.07583,10.86234 -9.17734,10.88281 -0.0813,0 -1.82738,-2.65977 -3.85772,-5.92891 -3.67504,-5.88804 -3.71561,-5.92874 -4.99477,-6.11147 -0.69032,-0.10083 -2.01009,-0.26283 -2.88314,-0.3856 l -1.60403,-0.18342"
     id="path72-7"
     style="fill:#ffffff;fill-opacity:1;stroke-width:2.03038716"
     inkscape:export-filename="G:\Users\suitedoalex\sites\Inter-miami-cf-logo-4.png"
     inkscape:export-xdpi="75.650612"
     inkscape:export-ydpi="75.650612" />
</svg>
